<svg width="25" height="25" viewBox="0 0 25 25" fill="none" xmlns="http://www.w3.org/2000/svg">
<rect x="0.236328" y="0.5" width="24" height="24" rx="12" fill="white"/>
<path d="M21.2363 12.5C21.2363 13.22 21.1463 13.9175 20.9663 14.5925C20.7638 15.4925 20.4038 16.37 19.9313 17.135C18.8513 18.9575 17.1188 20.375 15.0488 21.0275C14.1713 21.3425 13.2263 21.5 12.2363 21.5C9.91883 21.5 7.82633 20.6224 6.25133 19.1824C5.57633 18.5974 4.99133 17.9 4.54133 17.135C3.70883 15.785 3.23633 14.1875 3.23633 12.5C3.23633 11.51 3.39383 10.565 3.68633 9.66498C4.11383 8.35998 4.83383 7.19005 5.77883 6.22255C7.42133 4.53505 9.71633 3.5 12.2363 3.5C14.8913 3.5 17.2988 4.64754 18.9188 6.49254C20.3588 8.09004 21.2363 10.205 21.2363 12.5Z" stroke="#FD8D14" stroke-width="1.2" stroke-miterlimit="10" stroke-linecap="round" stroke-linejoin="round"/>
<path d="M15.4735 12.0457H8.23633M11.856 8.5V15.7614" stroke="#FD8D14" stroke-width="1.2" stroke-miterlimit="10" stroke-linecap="round" stroke-linejoin="round"/>
</svg>
