<svg width="15" height="20" viewBox="0 0 15 20" fill="none" xmlns="http://www.w3.org/2000/svg">
<path d="M6.21176 0.0585938C5.08676 0.238281 4.07895 0.648438 3.16489 1.28906C2.69223 1.61719 1.82114 2.48828 1.48129 2.96875C0.957856 3.71094 0.508637 4.74219 0.317231 5.64453C0.0750437 6.78906 0.145356 8.32422 0.512544 9.85938C1.08286 12.2422 2.49301 14.8789 4.47739 17.2852C5.19614 18.1562 6.00864 19.0195 6.69614 19.6523C7.07114 19.9922 7.08286 20 7.27426 20C7.46567 20 7.47739 19.9922 7.85239 19.6562C8.53207 19.0352 9.50082 17.9883 10.2274 17.0898C12.4227 14.3711 13.7938 11.5664 14.2274 8.90625C14.5477 6.9375 14.3485 5.34375 13.5985 3.86719C13.2625 3.20703 12.9149 2.71875 12.411 2.19531C11.3602 1.10156 10.1141 0.410156 8.65707 0.113281C8.1102 0.00390625 6.74692 -0.0273438 6.21176 0.0585938ZM7.46176 3.41406C7.52036 3.44531 8.33676 4.24219 9.27817 5.18359C10.9696 6.87891 10.9852 6.89844 10.9852 7.05859C10.9852 7.35156 10.7743 7.5 10.3524 7.5H10.1649V9.02344V10.5469L10.0516 10.6719L9.93832 10.8008L8.99692 10.8125C8.20786 10.8242 8.03989 10.8164 7.94223 10.7617C7.71567 10.6445 7.70395 10.582 7.70395 9.39453V8.32031H7.27426H6.84457V9.39453C6.84457 10.582 6.83286 10.6445 6.60629 10.7617C6.50864 10.8164 6.34067 10.8242 5.55161 10.8125L4.6102 10.8008L4.49692 10.6719L4.38364 10.5469V9.02344V7.5H4.20004C3.77426 7.5 3.56332 7.35156 3.56332 7.05859C3.56332 6.89844 3.58286 6.87891 5.25473 5.20312C6.18051 4.26953 6.99692 3.47266 7.05942 3.43359C7.20004 3.34375 7.32114 3.33984 7.46176 3.41406Z" fill="#115571"/>
</svg>
