<svg width="353" height="272" viewBox="0 0 353 272" fill="none" xmlns="http://www.w3.org/2000/svg">
<path fill-rule="evenodd" clip-rule="evenodd" d="M109.269 33.0815C110.619 35.4198 108.168 39.375 105.83 40.725C103.491 42.075 100.486 41.2698 99.1362 38.9315C97.7862 36.5932 98.5914 33.588 100.93 32.238C103.355 30.838 107.919 30.7432 109.269 33.0815Z" fill="#E7E9FF"/>
<path fill-rule="evenodd" clip-rule="evenodd" d="M57.0347 54.8096C55.8873 50.6223 58.3612 46.3072 62.5485 45.1598C66.7358 44.0125 71.0509 46.4864 72.1983 50.6737C73.3456 54.861 70.2047 57.0208 66.0174 58.1682C61.8301 59.3155 58.1321 58.9103 57.0347 54.8096Z" fill="#E7E9FF"/>
<path fill-rule="evenodd" clip-rule="evenodd" d="M54.6179 60.8237C55.0179 61.5165 54.7617 62.4727 54.0689 62.8727C53.3761 63.2727 52.4198 63.0165 52.0198 62.3237C51.6198 61.6309 51.8761 60.6747 52.5689 60.2747C53.2617 59.8747 54.2179 60.1309 54.6179 60.8237Z" fill="#E7E9FF"/>
<path fill-rule="evenodd" clip-rule="evenodd" d="M81.2477 43.9478C81.6977 44.7272 81.4415 45.6834 80.662 46.1334C79.8826 46.5834 78.9264 46.3272 78.4764 45.5477C78.0264 44.7683 78.2826 43.8121 79.062 43.3621C79.8415 42.9121 80.7977 43.1683 81.2477 43.9478Z" fill="#E7E9FF"/>
<path opacity="0.58" d="M21.7783 67.5438C22.5914 67.0744 22.87 66.0347 22.4006 65.2216C21.9311 64.4085 20.8914 64.1299 20.0783 64.5993C19.2652 65.0688 18.9866 66.1085 19.4561 66.9216C19.9255 67.7347 20.9652 68.0133 21.7783 67.5438Z" fill="#E7E9FF"/>
<path fill-rule="evenodd" clip-rule="evenodd" d="M83.1956 30.1216C83.8956 31.334 83.493 32.8367 82.2805 33.5367C81.0681 34.2367 79.5655 33.834 78.8655 32.6216C78.1655 31.4092 78.5681 29.9065 79.7805 29.2065C80.993 28.5065 82.4956 28.9092 83.1956 30.1216Z" fill="#E7E9FF"/>
<path opacity="0.58" fill-rule="evenodd" clip-rule="evenodd" d="M26.4365 38.4118C26.7365 38.9314 26.5535 39.6145 26.0338 39.9145C25.5142 40.2145 24.8312 40.0314 24.5312 39.5118C24.2312 38.9922 24.4142 38.3092 24.9338 38.0092C25.5901 37.7458 26.1865 37.9788 26.4365 38.4118Z" fill="#E7E9FF"/>
<path fill-rule="evenodd" clip-rule="evenodd" d="M91.1299 26.4644C91.2799 26.7242 91.2067 26.9974 90.9469 27.1474C90.6871 27.2974 90.4139 27.2242 90.2639 26.9644C90.1139 26.7046 90.1871 26.4314 90.4469 26.2814C90.7067 26.1314 90.9799 26.2046 91.1299 26.4644Z" fill="#E7E9FF"/>
<path fill-rule="evenodd" clip-rule="evenodd" d="M103.072 31.3478C103.222 31.6076 103.148 31.8808 102.889 32.0308C102.629 32.1808 102.356 32.1076 102.206 31.8478C102.056 31.588 102.129 31.3148 102.389 31.1648C102.598 30.9282 102.922 31.088 103.072 31.3478Z" fill="#E7E9FF"/>
<path opacity="0.58" fill-rule="evenodd" clip-rule="evenodd" d="M50.9404 62.2541C51.0904 62.5139 51.0172 62.7871 50.7574 62.9371C50.4976 63.0871 50.2244 63.0139 50.0744 62.7541C49.9244 62.4942 49.9976 62.221 50.2574 62.071C50.4306 61.971 50.8404 62.0809 50.9404 62.2541Z" fill="#E7E9FF"/>
<path opacity="0.58" fill-rule="evenodd" clip-rule="evenodd" d="M26.0201 70.2909C26.1701 70.5507 26.0969 70.824 25.8371 70.974C25.5773 71.124 25.3041 71.0507 25.1541 70.7909C25.0041 70.5311 25.0773 70.2579 25.3371 70.1079C25.5469 69.8713 25.8701 70.0311 26.0201 70.2909Z" fill="#E7E9FF"/>
<g opacity="0.3">
<path fill-rule="evenodd" clip-rule="evenodd" d="M214.208 229.352C214.653 231.014 213.64 232.769 211.979 233.214C210.317 233.659 208.562 232.646 208.117 230.985C207.672 229.323 208.685 227.568 210.346 227.123C211.989 226.609 213.744 227.622 214.208 229.352Z" fill="#82A85F"/>
<path d="M215.727 225.607C216.3 225.453 216.641 224.864 216.487 224.291C216.333 223.717 215.744 223.377 215.17 223.531C214.597 223.684 214.257 224.274 214.41 224.847C214.564 225.42 215.153 225.761 215.727 225.607Z" fill="#82A85F"/>
<path fill-rule="evenodd" clip-rule="evenodd" d="M190.214 244.462C191.011 247.438 188.14 251.397 185.164 252.195C182.187 252.992 180.144 250.35 179.347 247.374C178.549 244.397 180.693 242.71 183.739 241.894C186.646 241.115 189.416 241.485 190.214 244.462Z" fill="#82A85F"/>
<path fill-rule="evenodd" clip-rule="evenodd" d="M152.973 245.019C153.77 247.995 152.015 251.136 148.97 251.952C145.993 252.749 140.153 251.718 139.337 248.672C138.521 245.627 143.063 241.813 146.039 241.016C149.103 240.269 152.175 242.042 152.973 245.019Z" fill="#82A85F"/>
<path d="M173.369 262.997C173.942 262.843 174.283 262.254 174.129 261.68C173.975 261.107 173.386 260.766 172.813 260.92C172.239 261.074 171.899 261.663 172.053 262.237C172.206 262.81 172.796 263.15 173.369 262.997Z" fill="#82A85F"/>
<path d="M190.116 232.469C190.69 232.316 191.03 231.726 190.876 231.153C190.723 230.579 190.133 230.239 189.56 230.393C188.986 230.546 188.646 231.136 188.8 231.709C188.953 232.283 189.543 232.623 190.116 232.469Z" fill="#82A85F"/>
<path fill-rule="evenodd" clip-rule="evenodd" d="M172.372 244.049C172.521 244.603 172.166 245.217 171.612 245.365C171.059 245.514 170.444 245.159 170.296 244.605C170.147 244.052 170.502 243.437 171.056 243.289C171.61 243.141 172.224 243.495 172.372 244.049Z" fill="#82A85F"/>
<path fill-rule="evenodd" clip-rule="evenodd" d="M163.346 245.8C163.605 246.769 163.048 247.735 162.079 247.994C161.11 248.254 160.144 247.696 159.885 246.727C159.625 245.758 160.182 244.793 161.152 244.533C162.121 244.274 163.086 244.831 163.346 245.8Z" fill="#82A85F"/>
<path d="M148.822 271.058C149.471 270.884 149.857 270.216 149.683 269.566C149.509 268.916 148.841 268.53 148.191 268.704C147.541 268.878 147.155 269.546 147.33 270.196C147.504 270.846 148.172 271.232 148.822 271.058Z" fill="#82A85F"/>
<path d="M155.334 243.866C156.711 243.498 157.527 242.083 157.159 240.707C156.79 239.331 155.375 238.514 153.999 238.883C152.623 239.251 151.806 240.666 152.175 242.042C152.544 243.418 153.958 244.235 155.334 243.866Z" fill="#82A85F"/>
<path fill-rule="evenodd" clip-rule="evenodd" d="M159.6 232.931C159.712 233.346 159.458 233.785 159.043 233.896C158.628 234.007 158.189 233.754 158.078 233.339C157.966 232.923 158.22 232.484 158.635 232.373C159.069 232.331 159.489 232.515 159.6 232.931Z" fill="#82A85F"/>
<path fill-rule="evenodd" clip-rule="evenodd" d="M157.714 245.825C157.77 246.033 157.668 246.208 157.461 246.264C157.253 246.32 157.078 246.218 157.022 246.011C156.966 245.803 157.068 245.628 157.275 245.572C157.414 245.535 157.658 245.618 157.714 245.825Z" fill="#82A85F"/>
<path fill-rule="evenodd" clip-rule="evenodd" d="M200.812 225.597C200.868 225.805 200.767 225.98 200.559 226.036C200.351 226.092 200.176 225.99 200.12 225.783C200.065 225.575 200.166 225.399 200.374 225.344C200.581 225.288 200.757 225.389 200.812 225.597Z" fill="#82A85F"/>
</g>
<path fill-rule="evenodd" clip-rule="evenodd" d="M347.507 38.0227C347.507 40.4227 345.507 42.4227 343.107 42.4227C340.707 42.4227 338.707 40.4227 338.707 38.0227C338.707 35.6227 340.707 33.6227 343.107 33.6227C345.607 33.5227 347.507 35.5227 347.507 38.0227Z" fill="#FFECDC"/>
<path d="M350.907 33.6228C351.735 33.6228 352.407 32.9512 352.407 32.1228C352.407 31.2944 351.735 30.6228 350.907 30.6228C350.078 30.6228 349.407 31.2944 349.407 32.1228C349.407 32.9512 350.078 33.6228 350.907 33.6228Z" fill="#FFECDC"/>
<path fill-rule="evenodd" clip-rule="evenodd" d="M309.707 49.7228C309.707 54.0228 304.407 58.3228 300.107 58.3228C295.807 58.3228 294.007 54.0228 294.007 49.7228C294.007 45.4228 297.507 43.9229 301.907 43.9229C306.307 43.9229 309.707 45.4228 309.707 49.7228Z" fill="#FFECDC"/>
<path d="M280.307 68.6228C281.135 68.6228 281.807 67.9512 281.807 67.1228C281.807 66.2944 281.135 65.6228 280.307 65.6228C279.478 65.6228 278.807 66.2944 278.807 67.1228C278.807 67.9512 279.478 68.6228 280.307 68.6228Z" fill="#FFECDC"/>
<path d="M313.907 33.6228C314.735 33.6228 315.407 32.9512 315.407 32.1228C315.407 31.2944 314.735 30.6228 313.907 30.6228C313.078 30.6228 312.407 31.2944 312.407 32.1228C312.407 32.9512 313.078 33.6228 313.907 33.6228Z" fill="#FFECDC"/>
<path d="M284.307 44.2228C285.135 44.2228 285.807 43.5512 285.807 42.7228C285.807 41.8944 285.135 41.2228 284.307 41.2228C283.478 41.2228 282.807 41.8944 282.807 42.7228C282.807 43.5512 283.478 44.2228 284.307 44.2228Z" fill="#FFECDC"/>
<path fill-rule="evenodd" clip-rule="evenodd" d="M330.807 28.1228C330.807 28.4228 330.607 28.6228 330.307 28.6228C330.007 28.6228 329.807 28.4228 329.807 28.1228C329.807 27.8228 330.007 27.6228 330.307 27.6228C330.607 27.6228 330.807 27.8228 330.807 28.1228Z" fill="#FFECDC"/>
</svg>
