<svg width="31" height="31" viewBox="0 0 31 31" fill="none" xmlns="http://www.w3.org/2000/svg">
<path d="M1.73242 0.320314C1.21094 0.431643 0.712891 0.794924 0.455078 1.26367L0.279297 1.58008L0.261719 15.0977L0.25 28.6152L0.373047 28.9434C0.537109 29.377 0.953125 29.7988 1.39258 29.9629L1.7207 30.0859H15.25H28.7793L29.1074 29.9629C29.541 29.7988 29.9629 29.377 30.127 28.9434C30.25 28.6211 30.25 28.5684 30.25 21.8301C30.25 14.207 30.2793 14.7461 29.8047 14.2129C29.6582 14.0488 29.4062 13.8555 29.2363 13.7734C29.0078 13.668 27.5195 13.3516 23.3535 12.5254L17.7754 11.4238L17.7578 7.58594L17.7402 3.74805L17.5762 3.41406C17.3945 3.04492 17.0723 2.73438 16.6797 2.54688C16.4805 2.45899 14.7461 2.17188 9.49023 1.375C5.68164 0.800783 2.43555 0.314455 2.27148 0.296877C2.11328 0.279299 1.86719 0.291018 1.73242 0.320314ZM9.09766 2.63477C12.8535 3.20313 16 3.69531 16.0938 3.73047C16.1816 3.76563 16.3105 3.87696 16.3691 3.97656C16.4746 4.15235 16.4805 4.52735 16.4805 16.4746V28.7969H14.6348H12.7949L12.7773 25.7617L12.7598 22.7324L12.5957 22.4043C12.4082 22.0176 12.0156 21.6309 11.6289 21.4551C11.3594 21.332 11.2891 21.3262 9.00391 21.3262H6.6543L6.25 21.5313C5.96289 21.6777 5.78711 21.8184 5.62891 22.0293C5.23047 22.5508 5.23047 22.5566 5.23047 25.8496V28.7969H3.61914C1.86133 28.7969 1.74414 28.7793 1.60938 28.4746C1.50977 28.2637 1.50977 2.13086 1.60352 1.94336C1.70312 1.74414 1.90234 1.60938 2.0957 1.60938C2.18945 1.60938 5.33594 2.07227 9.09766 2.63477ZM23.3066 13.8555C28.6328 14.9043 28.6387 14.9043 28.8027 15.0859L28.9609 15.2617V21.7949C28.9609 26.7285 28.9434 28.3574 28.8906 28.4746C28.7383 28.8086 28.9609 28.7969 23.1309 28.7969H17.7695V20.7754C17.7695 13.1641 17.7754 12.7539 17.875 12.7773C17.9277 12.7891 20.377 13.2754 23.3066 13.8555ZM11.1895 22.7383C11.4824 22.9609 11.4941 23.043 11.4941 26.0254L11.5 28.7969H9.00977H6.51953V25.9551C6.51953 23.6172 6.53711 23.0781 6.60156 22.9492C6.67773 22.8027 6.8125 22.7031 7.04688 22.6211C7.09375 22.6035 8.00781 22.5977 9.08008 22.6035C10.9492 22.6152 11.0312 22.6211 11.1895 22.7383Z" fill="white"/>
<path d="M4.32812 6.38477C4.07617 6.51953 4.00586 6.64258 4 6.95898C4 7.19922 4.0293 7.26953 4.16992 7.41602L4.33984 7.58594H5.875H7.41016L7.58008 7.41602C7.7207 7.26953 7.75 7.19336 7.75 6.95898C7.75 6.64258 7.62695 6.45508 7.35742 6.34961C7.28125 6.32031 6.60156 6.29688 5.85742 6.29688C4.75586 6.29688 4.46289 6.31445 4.32812 6.38477Z" fill="white"/>
<path d="M10.5273 6.4082C10.1699 6.625 10.123 7.12891 10.4277 7.43359L10.5801 7.58594H12.0977C13.0293 7.58594 13.6621 7.5625 13.7324 7.52734C13.8848 7.43945 14.0195 7.16406 14.0195 6.91797C14.0195 6.77148 13.9668 6.6543 13.8496 6.51953L13.6797 6.32617L12.1914 6.30859C10.8203 6.29688 10.6973 6.30273 10.5273 6.4082Z" fill="white"/>
<path d="M4.32812 10.1348C4.07617 10.2695 4.00586 10.3926 4 10.709C4 10.9492 4.0293 11.0195 4.16992 11.166L4.33984 11.3359H5.875H7.41016L7.58008 11.166C7.7207 11.0195 7.75 10.9434 7.75 10.709C7.75 10.3926 7.62695 10.2051 7.35742 10.0996C7.28125 10.0703 6.60156 10.0469 5.85742 10.0469C4.75586 10.0469 4.46289 10.0645 4.32812 10.1348Z" fill="white"/>
<path d="M10.5273 10.1582C10.1699 10.375 10.123 10.8789 10.4277 11.1836L10.5801 11.3359H12.0977C13.0293 11.3359 13.6621 11.3125 13.7324 11.2773C13.8848 11.1895 14.0195 10.9141 14.0195 10.668C14.0195 10.5215 13.9668 10.4043 13.8496 10.2695L13.6797 10.0762L12.1914 10.0586C10.8203 10.0469 10.6973 10.0527 10.5273 10.1582Z" fill="white"/>
<path d="M4.32812 13.8848C4.07617 14.0195 4.00586 14.1426 4 14.459C4 14.6992 4.0293 14.7695 4.16992 14.916L4.33984 15.0859H5.875H7.41016L7.58008 14.916C7.7207 14.7695 7.75 14.6934 7.75 14.459C7.75 14.1426 7.62695 13.9551 7.35742 13.8496C7.28125 13.8203 6.60156 13.7969 5.85742 13.7969C4.75586 13.7969 4.46289 13.8145 4.32812 13.8848Z" fill="white"/>
<path d="M10.5273 13.9082C10.1699 14.125 10.123 14.6289 10.4277 14.9336L10.5801 15.0859H12.0977C13.0293 15.0859 13.6621 15.0625 13.7324 15.0273C13.8848 14.9395 14.0195 14.6641 14.0195 14.418C14.0195 14.2715 13.9668 14.1543 13.8496 14.0195L13.6797 13.8262L12.1914 13.8086C10.8203 13.7969 10.6973 13.8027 10.5273 13.9082Z" fill="white"/>
<path d="M4.32812 17.6348C4.07617 17.7695 4.00586 17.8926 4 18.209C4 18.4492 4.0293 18.5195 4.16992 18.666L4.33984 18.8359H5.875H7.41016L7.58008 18.666C7.7207 18.5195 7.75 18.4434 7.75 18.209C7.75 17.8926 7.62695 17.7051 7.35742 17.5996C7.28125 17.5703 6.60156 17.5469 5.85742 17.5469C4.75586 17.5469 4.46289 17.5645 4.32812 17.6348Z" fill="white"/>
<path d="M10.5273 17.6582C10.1699 17.875 10.123 18.3789 10.4277 18.6836L10.5801 18.8359H12.0977C13.0293 18.8359 13.6621 18.8125 13.7324 18.7773C13.8848 18.6895 14.0195 18.4141 14.0195 18.168C14.0195 18.0215 13.9668 17.9043 13.8496 17.7695L13.6797 17.5762L12.1914 17.5586C10.8203 17.5469 10.6973 17.5527 10.5273 17.6582Z" fill="white"/>
<path d="M21.7773 17.6582C21.4199 17.875 21.373 18.3789 21.6777 18.6836L21.8301 18.8359H23.3477C24.2793 18.8359 24.9121 18.8125 24.9824 18.7773C25.1348 18.6895 25.2695 18.4141 25.2695 18.168C25.2695 18.0215 25.2168 17.9043 25.0996 17.7695L24.9297 17.5762L23.4414 17.5586C22.0703 17.5469 21.9473 17.5527 21.7773 17.6582Z" fill="white"/>
<path d="M21.7773 21.4082C21.4199 21.625 21.373 22.1289 21.6777 22.4336L21.8301 22.5859H23.3477C24.2793 22.5859 24.9121 22.5625 24.9824 22.5273C25.1348 22.4395 25.2695 22.1641 25.2695 21.918C25.2695 21.7715 25.2168 21.6543 25.0996 21.5195L24.9297 21.3262L23.4414 21.3086C22.0703 21.2969 21.9473 21.3027 21.7773 21.4082Z" fill="white"/>
<path d="M21.7773 25.1582C21.4199 25.375 21.373 25.8789 21.6777 26.1836L21.8301 26.3359H23.3477C24.2793 26.3359 24.9121 26.3125 24.9824 26.2773C25.1348 26.1895 25.2695 25.9141 25.2695 25.668C25.2695 25.5215 25.2168 25.4043 25.0996 25.2695L24.9297 25.0762L23.4414 25.0586C22.0703 25.0469 21.9473 25.0527 21.7773 25.1582Z" fill="white"/>
</svg>
