<svg width="96" height="95" viewBox="0 0 96 95" fill="none" xmlns="http://www.w3.org/2000/svg">
<g filter="url(#filter0_d_197_421)">
<circle cx="48" cy="43.5" r="32.5" fill="#5CC133"/>
</g>
<path d="M42.2403 26.749C40.5614 27.0058 38.9616 27.5654 37.5592 28.3949C34.0435 30.4557 31.7063 34.0174 31.2125 38.0533C31.1598 38.4549 31.1467 39.133 31.1664 39.8638C31.2059 41.2069 31.2784 41.5821 31.8709 43.6955C32.3844 45.5126 32.4634 45.9142 32.4634 46.8228C32.4634 48.0803 32.2264 49.0086 31.5812 50.2595C31.173 51.0495 31.1401 51.2339 31.3574 51.6618C31.4825 51.9054 31.5878 52.0042 31.9696 52.2017C34.0567 53.3209 36.7955 53.1761 38.7311 51.8593L39.1262 51.5894L39.6792 51.7869C40.2915 52.0108 41.2527 52.2609 42.0098 52.3992C42.3324 52.4519 43.0303 52.4848 44.0508 52.4848C45.4794 52.4782 45.6638 52.465 46.4538 52.3004C49.9761 51.5499 52.9586 49.5616 54.9073 46.6582C58.0412 41.9837 57.7318 35.8214 54.137 31.43C53.5511 30.719 52.3265 29.5668 51.6352 29.0797C49.7918 27.7761 47.9747 27.0387 45.8811 26.7424C45.0318 26.6239 43.0435 26.6239 42.2403 26.749ZM46.1181 28.8821C50.4699 29.7446 53.8144 33.0562 54.7954 37.4805C54.9139 38.0335 54.9403 38.343 54.9403 39.5478C54.9468 40.7987 54.9271 41.0489 54.7888 41.6809C53.8474 46.0788 50.4502 49.3904 45.9469 50.2924C45.3346 50.4109 44.9923 50.4372 44.0179 50.4372C42.3851 50.4372 41.2593 50.2134 39.8438 49.6143C38.9089 49.2127 38.6521 49.2456 37.9279 49.8447C37.1774 50.4702 36.3281 50.7994 35.3142 50.852C34.7348 50.8849 33.9448 50.8059 33.7736 50.7006C33.7473 50.6874 33.8328 50.4241 33.9579 50.1146C34.4912 48.7847 34.6887 47.0598 34.478 45.618C34.4122 45.2032 34.1554 44.1366 33.8789 43.1754C33.6156 42.2339 33.3456 41.1476 33.2798 40.7526C33.0757 39.4556 33.2535 37.6714 33.7209 36.2296C33.9974 35.3934 34.6821 34.0372 35.2088 33.2932C35.7816 32.49 36.993 31.2786 37.7962 30.7058C39.2249 29.6919 41.1474 28.9611 42.9974 28.7241C43.5899 28.6517 45.4202 28.7439 46.1181 28.8821Z" fill="white"/>
<path d="M37.6711 38.1258C36.7823 38.4484 36.3873 39.5545 36.8482 40.4104C37.6382 41.8588 39.8372 41.3058 39.8503 39.6467C39.8569 38.692 39.1788 38.0205 38.2176 38.0402C38.0398 38.0402 37.7962 38.0797 37.6711 38.1258Z" fill="white"/>
<path d="M43.4254 38.1521C42.8197 38.4352 42.5037 38.9487 42.5037 39.6466C42.5102 40.3116 42.7868 40.779 43.3595 41.0818C43.7348 41.2794 44.4459 41.2794 44.8145 41.0818C45.9272 40.4959 45.993 38.9158 44.9462 38.264C44.5314 38.0072 43.8402 37.9612 43.4254 38.1521Z" fill="white"/>
<path d="M49.2191 38.1913C48.8241 38.3756 48.6464 38.56 48.4686 38.955C48.304 39.3171 48.2908 39.9096 48.4357 40.2586C48.5608 40.5614 48.8834 40.9038 49.1994 41.0684C49.9565 41.4568 50.898 41.1737 51.3325 40.4232C51.4905 40.1664 51.5169 40.0347 51.5169 39.6529C51.5234 39.1196 51.3852 38.8036 51.0165 38.4481C50.5556 38.0069 49.8314 37.9016 49.2191 38.1913Z" fill="white"/>
<path d="M60.5761 38.4153C60.4312 38.4943 60.293 38.6457 60.1876 38.8432C59.944 39.3304 60.0164 39.6004 60.609 40.3838C61.4912 41.5689 62.0903 42.8 62.4458 44.1695C62.7289 45.2492 62.7816 45.7101 62.7816 47.0202C62.775 48.5608 62.6565 49.2323 62.0969 50.8783C61.5307 52.5176 61.4649 52.8995 61.4715 54.3281C61.4715 55.3684 61.4978 55.6054 61.6492 56.2506C61.7414 56.6588 61.9191 57.2447 62.0442 57.5542L62.2681 58.1138L62.0311 58.1796C61.8994 58.2191 61.5439 58.2652 61.2344 58.2915C60.1547 58.364 58.9565 57.9821 58.1072 57.2842C57.6331 56.8958 57.3171 56.7312 57.0669 56.7312C56.9682 56.7312 56.56 56.8629 56.1584 57.0275C54.0648 57.8965 51.9119 58.1006 49.7063 57.6529C48.0143 57.304 46.4606 56.5864 45.0912 55.5066C44.5381 55.0721 44.2879 54.9734 43.8797 55.0392C43.2345 55.1445 42.8724 55.8819 43.1687 56.5074C43.3465 56.8826 44.5974 57.8109 45.7693 58.4364C46.8951 59.0355 48.3106 59.5161 49.7129 59.7729C50.7532 59.9638 53.0443 59.977 54.0253 59.7992C54.9075 59.6412 55.816 59.3976 56.3954 59.1738L56.8694 58.9894L57.1262 59.1804C57.5344 59.4898 58.647 60.0033 59.2593 60.1679C59.7399 60.2996 59.9769 60.3193 60.9711 60.3193C61.9784 60.3193 62.1891 60.2996 62.6434 60.1679C64.151 59.7334 64.7896 59.2594 64.7896 58.5878C64.7896 58.4825 64.6316 58.0875 64.4341 57.7122C63.7889 56.4744 63.5387 55.5066 63.5387 54.2228C63.5387 53.2748 63.6441 52.7349 64.0391 51.6157C64.658 49.8776 64.8555 48.7452 64.8555 46.9873C64.8555 44.7686 64.4407 42.991 63.4729 41.0619C63.0384 40.1929 62.3866 39.1988 61.9323 38.7116C61.5965 38.3495 61.5768 38.3363 61.1949 38.3165C60.9053 38.2968 60.7472 38.3165 60.5761 38.4153Z" fill="white"/>
<defs>
<filter id="filter0_d_197_421" x="0.5" y="0" width="95" height="95" filterUnits="userSpaceOnUse" color-interpolation-filters="sRGB">
<feFlood flood-opacity="0" result="BackgroundImageFix"/>
<feColorMatrix in="SourceAlpha" type="matrix" values="0 0 0 0 0 0 0 0 0 0 0 0 0 0 0 0 0 0 127 0" result="hardAlpha"/>
<feOffset dy="4"/>
<feGaussianBlur stdDeviation="7.5"/>
<feColorMatrix type="matrix" values="0 0 0 0 0 0 0 0 0 0 0 0 0 0 0 0 0 0 0.15 0"/>
<feBlend mode="normal" in2="BackgroundImageFix" result="effect1_dropShadow_197_421"/>
<feBlend mode="normal" in="SourceGraphic" in2="effect1_dropShadow_197_421" result="shape"/>
</filter>
</defs>
</svg>
