<svg width="24" height="24" viewBox="0 0 24 24" fill="none" xmlns="http://www.w3.org/2000/svg">
<g clip-path="url(#clip0_3383_6)">
<circle cx="12.011" cy="11.9985" r="10.0925" fill="white"/>
<path d="M10.8283 0.0327788C9.37051 0.182779 7.98769 0.576529 6.67988 1.21872C5.42363 1.83747 4.45332 2.52653 3.49238 3.49215C1.69238 5.29215 0.586133 7.47653 0.131445 10.1015C0.0423828 10.6312 0.0283203 10.875 0.0283203 12C0.0283203 13.4156 0.0798828 13.8937 0.375195 15.0609C1.19551 18.3047 3.44551 21.1218 6.44082 22.6687C7.67832 23.3062 8.70488 23.6484 10.1252 23.8875C10.8189 24.0047 12.5721 24.0281 13.3596 23.9343C16.0971 23.6015 18.483 22.4297 20.4564 20.4562C22.4533 18.4593 23.6111 16.0687 23.9346 13.275C24.0377 12.4078 24.0002 10.8609 23.8643 10.0359C23.5549 8.23122 22.9783 6.75934 22.0033 5.29684C20.0721 2.39997 16.983 0.501529 13.5002 0.0702788C12.9705 0.00465383 11.3158 -0.0187837 10.8283 0.0327788ZM18.3518 7.59372L19.1486 8.39059L14.3768 13.1625L9.60957 17.9297L7.24238 15.5625L4.8752 13.1953L5.68144 12.389L6.49238 11.5781L8.04863 13.1343L9.60957 14.6953L13.5611 10.7437C15.7314 8.5734 17.5174 6.79684 17.5314 6.79684C17.5455 6.79684 17.9158 7.15778 18.3518 7.59372Z" fill="#FD8D14"/>
</g>
<defs>
<clipPath id="clip0_3383_6">
<rect width="24" height="24" fill="white"/>
</clipPath>
</defs>
</svg>
