<svg width="31" height="31" viewBox="0 0 31 31" fill="none" xmlns="http://www.w3.org/2000/svg">
<path d="M6.32422 2.9646C6.24219 2.99976 5.64453 4.03687 4.60742 5.94702L3.01953 8.87085V18.0994V27.3337L3.16602 27.4744L3.30664 27.6208H15.5H27.6934L27.834 27.4744L27.9805 27.3337V18.0994V8.86499L26.3926 5.94702C25.2031 3.76147 24.7695 3.00562 24.6641 2.95874C24.4648 2.87085 6.50586 2.87671 6.32422 2.9646ZM24.4766 4.4646C24.6641 4.8103 25.2324 5.86499 25.748 6.80249L26.6797 8.51929H15.5H4.32031L5.5918 6.17554L6.85742 3.83765L15.5 3.83179H24.1426L24.4766 4.4646ZM7.8125 11.4607L7.79492 13.4705L7.64258 13.7986C7.34961 14.4197 6.75781 14.8533 6.08398 14.9412C5.84961 14.9705 5.67383 14.947 5.35742 14.8474C4.98828 14.7361 4.88281 14.6716 4.57227 14.3611C3.99805 13.7869 3.99805 13.7751 3.96875 11.4314L3.95117 9.45679H5.89062H7.83008L7.8125 11.4607ZM12.6172 11.4607L12.5996 13.4705L12.4473 13.7986C12.248 14.2263 11.8848 14.5837 11.4629 14.7771C11.2051 14.9001 11.041 14.9294 10.6953 14.9353C10.127 14.9353 9.71094 14.7419 9.30078 14.2908C8.80859 13.7517 8.79688 13.7048 8.77344 11.4314L8.75586 9.45679H10.6953H12.6348L12.6172 11.4607ZM17.4219 11.4607L17.4043 13.4705L17.252 13.7927C16.7949 14.7712 15.6348 15.2166 14.7266 14.7712C14.3047 14.5662 13.9648 14.2263 13.7598 13.8044L13.5957 13.4705L13.5781 11.4607L13.5605 9.45679H15.5H17.4395L17.4219 11.4607ZM22.2383 11.3201C22.2383 13.3298 22.2031 13.6287 21.9219 14.0798C21.4355 14.8474 20.3574 15.1697 19.5137 14.7947C19.1504 14.6306 18.752 14.2439 18.5645 13.8572L18.4004 13.5291L18.3828 11.49L18.3652 9.45679H20.2988H22.2383V11.3201ZM27.0312 11.4666L27.0137 13.4705L26.8203 13.863C26.6035 14.3025 26.334 14.5662 25.9004 14.7654C24.9453 15.2048 23.832 14.8064 23.3691 13.863L23.2051 13.5291L23.1875 11.49L23.1699 9.45679H25.1094H27.0488L27.0312 11.4666ZM9.40625 15.6208C9.81641 15.8142 10.2441 15.9021 10.7422 15.9021C11.5449 15.8962 12.2012 15.6208 12.7695 15.0466L13.1328 14.6833L13.2441 14.8533C13.3848 15.0642 13.9824 15.533 14.2695 15.656C15.1074 16.0134 16.0742 15.9841 16.8887 15.5681C17.1992 15.4158 17.8438 14.8357 17.8438 14.7185C17.8438 14.6833 18.0137 14.824 18.2188 15.0349C18.7988 15.6208 19.4492 15.8962 20.2578 15.9021C21.1133 15.9021 21.7227 15.6619 22.3027 15.0876L22.6953 14.7009L23.041 15.0583C23.6445 15.6736 24.3594 15.9431 25.2852 15.8845C25.8477 15.8552 26.3047 15.7029 26.75 15.4041L27.043 15.2048V20.947V26.6833H19.5137H11.9844V21.9958V17.3025L11.8379 17.1619L11.6973 17.0154H8.70312H5.70898L5.56836 17.1619L5.42188 17.3025V21.9958V26.6833H4.68945H3.95703V20.947V15.2048L4.25 15.4041C4.69531 15.7029 5.15234 15.8552 5.71484 15.8845C6.64062 15.9431 7.35547 15.6736 7.95898 15.0583L8.30469 14.7009L8.69727 15.0876C8.92578 15.3103 9.21875 15.533 9.40625 15.6208ZM11.0469 22.3181V26.6833H8.70312H6.35938V22.3181V17.9529H8.70312H11.0469V22.3181Z" fill="#FD8D14" stroke="#FD8D14" stroke-width="0.6"/>
<path d="M13.1094 17.0564C13.0684 17.074 12.998 17.1619 12.9512 17.2498C12.875 17.3962 12.8633 17.9763 12.8633 21.1931C12.8633 24.9255 12.8633 24.9724 12.9863 25.1248L13.1035 25.2771H19.2207H25.3379L25.4551 25.1248C25.5781 24.9724 25.5781 24.9255 25.5781 21.1345V17.3025L25.4316 17.1619L25.291 17.0154L19.2383 17.0212C15.9102 17.0212 13.1504 17.0388 13.1094 17.0564ZM24.6406 21.1462V24.3396H19.25H13.8594V21.1462V17.9529H19.25H24.6406V21.1462Z" fill="#FD8D14" stroke="#FD8D14" stroke-width="0.6"/>
</svg>
