<svg width="29" height="29" viewBox="0 0 29 29" fill="none" xmlns="http://www.w3.org/2000/svg">
<circle cx="14.831" cy="14.8432" r="10.8861" fill="#ED3324"/>
<circle opacity="0.2" cx="14.8311" cy="14.8433" r="14" fill="#ED3324"/>
<path d="M13.1138 9.00553C12.8058 9.11587 12.5691 9.35493 12.461 9.66755C12.4265 9.7641 12.4173 9.85835 12.4173 10.0675V10.3388H11.4565C10.5623 10.3388 10.4841 10.3411 10.3646 10.3824C10.1255 10.4652 9.93015 10.6238 9.78763 10.8514C9.59913 11.1548 9.61752 11.6513 9.8313 11.9663C9.92555 12.1042 10.1324 12.2766 10.2681 12.3294L10.36 12.3639L10.668 16.0717C10.8358 18.113 10.9829 19.8324 10.9944 19.8922C11.0611 20.2577 11.3576 20.5841 11.7254 20.6967C11.884 20.745 17.7779 20.745 17.9365 20.6967C18.1043 20.6461 18.217 20.5795 18.3572 20.453C18.4997 20.3197 18.633 20.083 18.6675 19.8945C18.679 19.8324 18.8261 18.113 18.9939 16.074L19.3019 12.3639L19.3939 12.3294C19.5295 12.2766 19.7364 12.1042 19.8306 11.9663C20.0444 11.6513 20.0628 11.1548 19.8743 10.8514C19.7318 10.6238 19.5364 10.4652 19.2973 10.3824C19.1778 10.3411 19.0997 10.3388 18.2055 10.3388H17.2446V10.0675C17.2446 9.85835 17.2354 9.7641 17.2009 9.66755C17.0929 9.35033 16.8538 9.11127 16.5389 9.00323C16.4148 8.96185 16.3366 8.95956 14.8218 8.96185C13.3345 8.96185 13.2265 8.96645 13.1138 9.00553ZM16.3665 9.70663C16.4952 9.78479 16.5366 9.87903 16.5504 10.1227L16.5619 10.3388H14.831H13.1L13.1115 10.1227C13.1276 9.83076 13.1966 9.71813 13.3943 9.66985C13.4334 9.66066 14.1 9.65376 14.8769 9.65606C16.247 9.66066 16.2929 9.66296 16.3665 9.70663ZM19.1295 11.0904C19.2353 11.1548 19.2904 11.2537 19.2904 11.3732C19.2904 11.4927 19.2353 11.5916 19.1295 11.6559L19.0491 11.7065H14.831C10.6542 11.7065 10.6129 11.7065 10.537 11.6605C10.275 11.5019 10.3347 11.1226 10.6335 11.0491C10.6726 11.0399 12.5828 11.0353 14.8769 11.0353L19.0491 11.0399L19.1295 11.0904ZM18.5778 12.4237C18.5778 12.4352 18.4422 14.0857 18.2767 16.097C18.0377 18.9934 17.9687 19.768 17.9388 19.8301C17.8905 19.9289 17.8101 19.9887 17.6905 20.0163C17.571 20.0439 12.0909 20.0439 11.9714 20.0163C11.8519 19.9887 11.7714 19.9289 11.7231 19.8301C11.6932 19.768 11.6243 18.9934 11.3852 16.097C11.2197 14.0857 11.0841 12.4352 11.0841 12.4237C11.0841 12.4145 12.7713 12.4076 14.831 12.4076C16.8929 12.4076 18.5778 12.4145 18.5778 12.4237Z" fill="white"/>
<path d="M12.5692 13.1411C12.4497 13.2192 12.4175 13.2974 12.4175 13.4997C12.4175 13.6008 12.4956 14.9065 12.5876 16.4006C12.7738 19.3843 12.7531 19.205 12.914 19.3062C13.0174 19.3683 13.2082 19.366 13.3048 19.2993C13.422 19.2188 13.4519 19.1476 13.4519 18.943C13.4519 18.8441 13.3737 17.5408 13.2818 16.0443C13.1163 13.3778 13.1117 13.325 13.0588 13.2491C13.0289 13.2054 12.9784 13.1549 12.9439 13.1342C12.8565 13.0813 12.6542 13.0859 12.5692 13.1411Z" fill="white"/>
<path d="M14.638 13.1408C14.6036 13.1638 14.553 13.2144 14.53 13.2489C14.4886 13.3132 14.4863 13.4144 14.4863 16.2234C14.4863 19.0324 14.4886 19.1335 14.53 19.1979C14.6013 19.3036 14.6886 19.3496 14.8311 19.3496C14.9737 19.3496 15.061 19.3036 15.1323 19.1979C15.1736 19.1335 15.1759 19.0324 15.1759 16.2234C15.1759 13.4144 15.1736 13.3132 15.1323 13.2489C15.061 13.1431 14.9737 13.0972 14.8311 13.0972C14.7461 13.0972 14.684 13.1109 14.638 13.1408Z" fill="white"/>
<path d="M16.7067 13.1407C16.5458 13.2464 16.5665 13.0556 16.3803 16.0462C16.2884 17.5404 16.2102 18.846 16.2102 18.9472C16.2102 19.1494 16.2424 19.2276 16.3619 19.3058C16.4516 19.3655 16.6516 19.3655 16.7481 19.3058C16.909 19.2046 16.8883 19.3839 17.0745 16.4002C17.1665 14.9061 17.2446 13.6004 17.2446 13.4993C17.2446 13.297 17.2124 13.2188 17.0929 13.1407C17.001 13.0809 16.7964 13.0809 16.7067 13.1407Z" fill="white"/>
</svg>
