<svg width="513" height="513" viewBox="0 0 513 513" fill="none" xmlns="http://www.w3.org/2000/svg">
<g clip-path="url(#clip0_46_4)">
<path d="M177.374 68.2179C168.074 73.9179 165.674 85.5179 171.974 94.3179C175.474 99.3179 180.974 101.318 191.274 101.318H199.974V109.818V118.318H165.274C133.474 118.318 130.074 118.518 126.374 120.218C117.874 124.118 116.074 129.818 115.974 153.018V169.318H97.2736C79.6736 169.318 78.2736 169.518 74.4736 171.618C72.2736 172.918 69.5736 175.618 68.2736 177.818C66.0736 181.618 65.9736 182.818 65.9736 203.518V225.318H50.9736H35.9736V200.518C35.9736 185.518 35.5736 174.218 34.8736 171.818C33.4736 166.818 28.1736 161.718 22.7736 160.318C17.5736 158.818 10.3736 160.518 6.6736 163.918C0.573605 169.518 0.873605 163.318 1.1736 268.118L1.4736 364.018L4.1736 367.518C11.9736 377.718 28.6736 375.718 34.0736 363.918C35.7736 360.218 35.9736 357.018 35.9736 334.018V308.318H50.9736H65.9736V330.218C65.9736 353.018 66.3736 356.018 70.2736 360.118C75.1736 365.418 76.7736 365.718 102.674 366.318L126.774 366.818L157.674 404.718C178.374 430.218 189.574 443.218 191.974 444.418C195.274 446.218 199.974 446.318 293.774 446.318H392.174L396.074 444.118C398.774 442.618 400.774 440.418 402.474 436.918C404.774 432.418 404.974 430.718 404.974 419.618V407.318H412.974H420.974V420.318C420.974 435.118 422.274 439.218 428.174 443.418C431.774 446.018 440.874 447.118 445.174 445.418C449.774 443.618 509.474 391.818 511.374 388.018C512.774 384.918 512.974 377.718 512.974 320.118C512.974 259.718 512.874 255.618 511.174 252.318C508.674 247.518 448.574 201.818 442.774 200.218C435.674 198.318 428.374 201.118 423.574 207.618C421.674 210.218 421.474 212.018 421.174 226.918L420.874 243.318H412.974H405.174L404.774 227.518C404.374 209.918 403.674 207.518 397.274 202.618L393.674 199.818L373.274 199.518L352.974 199.218V165.018C352.974 131.518 352.874 130.718 350.674 126.918C349.274 124.418 346.774 122.118 344.074 120.618C339.774 118.418 339.074 118.318 311.274 118.318H282.974V109.818V101.318H291.674C302.674 101.318 307.874 99.1179 311.474 92.9179C316.474 84.3179 314.274 74.1179 306.074 68.6179L302.674 66.3179H241.574C183.474 66.3179 180.274 66.4179 177.374 68.2179Z" fill="#FD8D14"/>
<path d="M261.792 193.258C260.874 194.141 203.339 294.599 202.829 296.264C202.523 297.25 203.135 299.119 204.018 299.935C204.698 300.546 205.888 300.58 228.929 300.75L253.126 300.92L249.965 331.336C248.232 348.056 246.873 362.228 246.975 362.84C247.417 365.354 251.155 366.612 253.058 364.879C253.534 364.471 266.754 341.226 282.454 313.188C308.452 266.868 311.035 262.144 311.035 260.751C311.035 259.527 310.831 259.051 310.05 258.236L309.064 257.25H284.527H260.025L260.229 256.129C260.331 255.551 262.166 241.685 264.307 225.339C267.773 198.661 268.147 195.535 267.739 194.549C266.754 192.17 263.661 191.524 261.792 193.258Z" fill="white"/>
</g>
<defs>
<clipPath id="clip0_46_4">
<rect width="512" height="512" fill="white" transform="translate(0.973633 0.317871)"/>
</clipPath>
</defs>
</svg>
