<svg width="31" height="31" viewBox="0 0 31 31" fill="none" xmlns="http://www.w3.org/2000/svg">
<path fill-rule="evenodd" clip-rule="evenodd" d="M17.6737 30.3219C24.9065 29.2074 30.4425 22.9958 30.4425 15.5C30.4425 7.21573 23.6806 0.5 15.3394 0.5C6.99821 0.5 0.236328 7.21573 0.236328 15.5C0.236328 22.9212 5.66274 29.0837 12.7898 30.2872V21.4896H9.77039C9.50971 21.4896 9.29818 21.2798 9.29818 21.0206V17.2393C9.29818 16.9802 9.50947 16.7701 9.77039 16.7701H12.7898V14.1603C12.7898 10.7217 14.9701 8.5 18.344 8.5L21.347 8.50479C21.6074 8.50526 21.8185 8.71511 21.8185 8.97377V12.4849C21.8185 12.7438 21.6072 12.9539 21.3465 12.9539L19.3235 12.9546C17.9289 12.9546 17.6737 13.4944 17.6737 14.5578V16.7701H21.2054C21.3306 16.7701 21.4511 16.8197 21.5395 16.9077C21.6279 16.9958 21.6778 17.1149 21.6778 17.2393L21.6763 21.0206C21.6763 21.2798 21.4651 21.4896 21.2041 21.4896H17.6737V30.3219Z" fill="#D5DDE0"/>
</svg>
