<svg width="31" height="31" viewBox="0 0 31 31" fill="none" xmlns="http://www.w3.org/2000/svg">
<path d="M14.5195 1.66792C9.04102 2.19527 4.47656 5.91597 2.85352 11.1894C2.4668 12.4433 2.30859 13.5976 2.30859 15.0859C2.30859 16.7265 2.50781 17.9746 2.99414 19.3925C4.66406 24.2617 8.72461 27.6367 13.875 28.4218C14.6836 28.5507 16.6992 28.5625 17.4199 28.4511C20.6309 27.9531 23.1445 26.7226 25.2656 24.6015C27.3867 22.4746 28.6172 19.9726 29.1152 16.7558C29.209 16.1523 29.209 14.0312 29.1152 13.3867C28.875 11.7168 28.4355 10.3164 27.7324 8.93941C25.7461 5.0605 22.0488 2.41792 17.6836 1.76167C16.9277 1.64449 15.2695 1.59761 14.5195 1.66792ZM17.4785 3.68941C18.6211 3.86519 19.7227 4.21675 20.8242 4.74995C23.168 5.88667 25.2129 8.00191 26.2617 10.3808C27.375 12.8945 27.5742 15.5839 26.8477 18.1914C25.6172 22.58 21.8086 25.8906 17.2734 26.5175C16.5645 26.6171 14.9414 26.6171 14.2559 26.5234C9.12891 25.8027 5.12695 21.8652 4.3418 16.7675C4.21875 15.9648 4.20703 14.3535 4.31836 13.5625C4.42969 12.7656 4.74023 11.5878 5.04492 10.8378C5.36133 10.0468 5.53711 9.70113 5.94141 9.04488C7.86914 5.92769 11.1562 3.91792 14.8711 3.57808C15.3633 3.5312 16.8926 3.59566 17.4785 3.68941Z" fill="#FD8D14"/>
<path d="M14.5781 6.76562C12.9258 7.19336 11.5957 8.5293 11.1797 10.1875C11.0156 10.8262 11.0215 11.8457 11.1797 12.4844C11.5195 13.8086 12.4043 14.9219 13.6113 15.5254C14.3437 15.8945 14.9004 16.0234 15.75 16.0234C16.6055 16.0234 17.1562 15.8945 17.918 15.5137C18.3926 15.2793 18.5566 15.1504 19.0605 14.6465C19.5645 14.1426 19.6934 13.9785 19.9277 13.5039C20.3086 12.7422 20.4375 12.1914 20.4375 11.3359C20.4375 10.4863 20.3086 9.92969 19.9395 9.19727C19.3301 7.97852 18.2344 7.10547 16.8984 6.76562C16.2715 6.60742 15.1992 6.60742 14.5781 6.76562ZM16.5645 8.69336C17.209 8.89258 17.8184 9.39062 18.1641 9.98828C18.6445 10.8145 18.6152 11.9863 18.0996 12.7949C17.8711 13.1465 17.3672 13.627 17.0625 13.7852C16.2246 14.2129 15.1289 14.1895 14.332 13.7207C14.0156 13.5391 13.459 12.959 13.3008 12.6543C12.8965 11.8457 12.8965 10.8262 13.3008 10.0176C13.459 9.70703 14.0039 9.14453 14.3379 8.95117C14.9766 8.57617 15.8613 8.47656 16.5645 8.69336Z" fill="#FD8D14"/>
<path d="M11.8242 16.6972C10.8867 16.9022 9.9668 17.5761 9.54492 18.3612C9.28125 18.8651 8.54297 21.0858 8.54297 21.3905C8.54297 21.6776 8.71875 21.9647 9.00586 22.1581C9.39258 22.4218 10.0078 22.287 10.2832 21.8886C10.3535 21.7831 10.582 21.1796 10.7988 20.5409C11.0098 19.9022 11.25 19.2929 11.332 19.1815C11.5078 18.9413 11.8828 18.6835 12.1699 18.6015C12.2988 18.5663 13.6758 18.5429 15.7793 18.5429C19.3945 18.5487 19.3887 18.5487 19.8105 18.8358C20.168 19.0819 20.3027 19.3397 20.7012 20.5351C20.918 21.1796 21.1465 21.789 21.2168 21.8944C21.4102 22.1757 21.6914 22.3046 22.0664 22.2753C22.5703 22.2401 22.957 21.8534 22.957 21.3905C22.957 21.0858 22.2188 18.8651 21.9551 18.3729C21.5801 17.664 20.8945 17.1015 20.0449 16.8026L19.5879 16.6386L15.8965 16.6269C12.8965 16.621 12.1348 16.6327 11.8242 16.6972Z" fill="#FD8D14"/>
</svg>
