<svg width="41" height="41" viewBox="0 0 41 41" fill="none" xmlns="http://www.w3.org/2000/svg">
<circle opacity="0.05" cx="20.012" cy="20.3055" r="20" fill="#FD8D14"/>
<g clip-path="url(#clip0_1704_4187)">
<path d="M26.6786 23.2222C26.6786 23.4522 26.492 23.6389 26.262 23.6389H23.762C23.532 23.6389 23.3453 23.4522 23.3453 23.2222C23.3453 22.9922 23.532 22.8055 23.762 22.8055H26.262C26.492 22.8055 26.6786 22.9922 26.6786 23.2222ZM30.012 22.3889V27.3889C30.012 28.9972 28.7036 30.3055 27.0953 30.3055H12.9286C11.3203 30.3055 10.012 28.9972 10.012 27.3889V22.3889C10.012 20.7805 11.3203 19.4722 12.9286 19.4722H14.1786V13.2222C14.1786 11.6139 15.487 10.3055 17.0953 10.3055H22.9286C24.537 10.3055 25.8453 11.6139 25.8453 13.2222V19.4722H27.0953C28.7036 19.4722 30.012 20.7805 30.012 22.3889ZM15.012 19.4722H25.012V13.2222C25.012 12.073 24.0778 11.1389 22.9286 11.1389H17.0953C15.9461 11.1389 15.012 12.073 15.012 13.2222V19.4722ZM12.9286 29.4722H19.5953V20.3055H12.9286C11.7795 20.3055 10.8453 21.2397 10.8453 22.3889V27.3889C10.8453 28.538 11.7795 29.4722 12.9286 29.4722ZM29.1786 22.3889C29.1786 21.2397 28.2445 20.3055 27.0953 20.3055H20.4286V29.4722H27.0953C28.2445 29.4722 29.1786 28.538 29.1786 27.3889V22.3889ZM16.262 22.8055H13.762C13.532 22.8055 13.3453 22.9922 13.3453 23.2222C13.3453 23.4522 13.532 23.6389 13.762 23.6389H16.262C16.492 23.6389 16.6786 23.4522 16.6786 23.2222C16.6786 22.9922 16.492 22.8055 16.262 22.8055ZM21.6786 14.0555C21.6786 13.8255 21.492 13.6389 21.262 13.6389H18.762C18.532 13.6389 18.3453 13.8255 18.3453 14.0555C18.3453 14.2855 18.532 14.4722 18.762 14.4722H21.262C21.492 14.4722 21.6786 14.2855 21.6786 14.0555Z" fill="#FD8D14"/>
</g>
<defs>
<clipPath id="clip0_1704_4187">
<rect width="20" height="20" fill="white" transform="translate(10.012 10.3055)"/>
</clipPath>
</defs>
</svg>
