<svg width="41" height="41" viewBox="0 0 41 41" fill="none" xmlns="http://www.w3.org/2000/svg">
<circle opacity="0.05" cx="20.012" cy="20.3055" r="20" fill="#FD8D14"/>
<path d="M15.6565 13.2313C13.594 14.1493 11.8557 14.9462 11.7893 15.0009L11.6721 15.1024L11.6604 19.8446C11.6526 24.4305 11.6565 24.5868 11.7268 24.704C11.7932 24.8094 12.2229 25.0126 15.637 26.5282C17.9612 27.5634 19.5198 28.2352 19.594 28.2352C19.7659 28.2352 20.7776 27.7782 20.8713 27.6571C20.9924 27.5087 20.9768 27.2509 20.844 27.1024C20.6643 26.9032 20.5276 26.9071 20.0276 27.1298L19.5979 27.3251L16.0667 25.7509L12.5315 24.1805L12.5198 20.079L12.512 15.9735L12.8518 16.1259C13.0432 16.2079 14.6018 16.9032 16.3206 17.6649C18.6838 18.7196 19.4807 19.0555 19.5979 19.0555C19.7112 19.0555 20.5745 18.6884 23.176 17.5321C25.0627 16.6923 26.6135 16.0087 26.6292 16.0087C26.6409 16.0087 26.6526 17.0907 26.6526 18.411C26.6526 21.0516 26.6448 20.9813 26.887 21.1063C27.0901 21.2118 27.3127 21.161 27.4612 20.9696C27.5002 20.9266 27.5081 20.2274 27.512 18.0048V15.1024L27.4065 15.0048C27.344 14.9501 25.6018 14.1532 23.5276 13.2313C20.3049 11.8016 19.7307 11.5595 19.5823 11.5595C19.4377 11.5634 18.719 11.868 15.6565 13.2313ZM20.8401 13.0087C21.4807 13.2938 21.9885 13.536 21.9729 13.5516C21.9417 13.5829 15.7268 16.3524 15.6526 16.372C15.6057 16.3798 13.2151 15.3368 13.2151 15.3055C13.2151 15.2665 19.5667 12.4618 19.6213 12.4774C19.6526 12.4891 20.2034 12.7274 20.8401 13.0087ZM24.5549 14.661C25.3206 15.0009 25.9495 15.2899 25.9495 15.3055C25.9495 15.3212 24.5198 15.9657 22.7737 16.743L19.594 18.1571L18.1565 17.5165L16.7151 16.8759L16.8518 16.8095C17.4104 16.5516 23.1213 14.0282 23.137 14.0321C23.1487 14.0399 23.7854 14.3212 24.5549 14.661Z" fill="#FD8D14"/>
<path opacity="0.5" d="M22.3948 19.8992C21.301 20.1102 20.4417 20.7352 19.9534 21.6727C19.7112 22.1492 19.6174 22.4969 19.594 23.0633C19.5589 23.8406 19.7268 24.4578 20.1448 25.0867C20.5589 25.7078 21.1682 26.1688 21.887 26.4071C22.2151 26.5125 22.3245 26.5321 22.8049 26.5477C23.2659 26.5594 23.4065 26.5516 23.6995 26.4813C24.0549 26.3953 24.5745 26.1727 24.8167 25.9969L24.9534 25.8992L26.3206 27.2586C27.5237 28.4578 27.7073 28.6219 27.8401 28.6492C28.1565 28.7078 28.4143 28.45 28.3557 28.1336C28.3284 28.0008 28.1643 27.8172 26.9651 26.6141L25.6057 25.2469L25.7034 25.1102C25.8753 24.8758 26.1018 24.3524 26.1839 24.0125C26.2893 23.5672 26.2893 22.868 26.1839 22.4266C25.9534 21.4696 25.3206 20.6727 24.4339 20.2274C23.9573 19.9852 23.6292 19.9071 23.0198 19.8953C22.7307 19.8875 22.4495 19.8914 22.3948 19.8992ZM23.4026 20.7977C24.8792 21.0946 25.762 22.6492 25.2542 24.0438C25.1057 24.4461 24.9182 24.7313 24.6057 25.0242C24.3128 25.2977 24.0393 25.4617 23.6643 25.5867C23.301 25.7078 22.5706 25.7156 22.2385 25.6024C21.3128 25.2899 20.6799 24.5828 20.4964 23.6688C20.2698 22.5203 20.9456 21.3289 22.0667 20.9071C22.5315 20.7352 22.926 20.7 23.4026 20.7977Z" fill="#FD8D14"/>
</svg>
