<svg width="41" height="41" viewBox="0 0 41 41" fill="none" xmlns="http://www.w3.org/2000/svg">
<circle opacity="0.05" cx="20.012" cy="20.3055" r="20" fill="#FD8D14"/>
<path opacity="0.4" d="M20.8453 17.8055H15.8453" stroke="#FD8D14" stroke-linecap="round" stroke-linejoin="round"/>
<path d="M28.3453 19.4471V21.1638C28.3453 21.6222 27.9786 21.9971 27.512 22.0138H25.8786C24.9786 22.0138 24.1536 21.3555 24.0786 20.4555C24.0286 19.9305 24.2286 19.4388 24.5786 19.0971C24.887 18.7805 25.312 18.5972 25.7786 18.5972H27.512C27.9786 18.6138 28.3453 18.9888 28.3453 19.4471Z" stroke="#FD8D14" stroke-linecap="round" stroke-linejoin="round"/>
<path d="M24.5786 19.0972C24.2286 19.4388 24.0286 19.9305 24.0786 20.4555C24.1536 21.3555 24.9786 22.0138 25.8786 22.0138H27.512V23.2222C27.512 25.7222 25.8453 27.3888 23.3453 27.3888H15.8453C13.3453 27.3888 11.6786 25.7222 11.6786 23.2222V17.3888C11.6786 15.1222 13.0453 13.5388 15.1703 13.2722C15.387 13.2388 15.612 13.2222 15.8453 13.2222H23.3453C23.562 13.2222 23.7703 13.2305 23.9703 13.2638C26.1203 13.5138 27.512 15.1055 27.512 17.3888V18.5972H25.7786C25.3119 18.5972 24.8869 18.7805 24.5786 19.0972Z" stroke="#FD8D14" stroke-linecap="round" stroke-linejoin="round"/>
</svg>
