<svg width="292" height="282" viewBox="0 0 292 282" fill="none" xmlns="http://www.w3.org/2000/svg">
<g clip-path="url(#clip0_32_54)">
<rect width="292" height="282" fill="url(#paint0_linear_32_54)"/>
<circle cx="146" cy="826.801" r="674.382" fill="white"/>
<path d="M143.07 76.0782C139.145 77.2208 136.068 80.1797 134.955 83.9297C134.369 85.9512 134.369 89.2911 134.984 91.1368L135.482 92.6016L133.637 94.3594C132.611 95.3262 122.826 104.496 111.869 114.75L91.9473 133.383H88.5781C86.6152 133.383 84.418 133.588 83.334 133.822C77.8262 135.141 73.0508 139.652 71.4688 145.072C71.0586 146.479 71 149.467 71 169.682C71 184.418 71.1172 193.178 71.3223 194.027C72.2012 197.895 75.7754 202.406 79.4082 204.252C83.2461 206.156 78.4414 206.039 146.146 206.039C201.254 206.039 207.758 205.981 209.398 205.57C214.584 204.223 218.803 200.18 220.414 194.936C220.971 193.178 221 192.123 221 169.799V146.537L220.268 144.311C218.598 139.359 214.613 135.463 209.721 133.969C209.076 133.764 206.674 133.529 204.389 133.412L200.229 133.236L178.52 112.904C162.113 97.5528 156.84 92.4844 156.986 92.1036C157.104 91.8399 157.396 90.8145 157.631 89.8184C158.891 84.7793 156.049 79.0958 151.127 76.7813C148.842 75.7266 145.297 75.4044 143.07 76.0782ZM141.459 98.1387C143.012 98.8711 143.539 98.959 146.176 98.959C148.988 98.959 149.193 98.9004 151.391 97.8165L153.676 96.7032L154.584 97.5528C155.111 98.0508 163.754 106.107 173.832 115.512C183.91 124.916 192.348 132.768 192.582 132.973C192.934 133.324 185.521 133.383 146.205 133.383H99.418L119.105 114.955C136.332 98.8418 138.881 96.5567 139.262 96.9083C139.525 97.1426 140.492 97.6993 141.459 98.1387ZM115.59 157.699C117.348 158.139 119.135 159.691 119.779 161.273C121.068 164.496 119.955 169.008 117.553 170.385C116.938 170.736 116.41 171.147 116.41 171.264C116.41 171.381 117.348 173.197 118.49 175.307C120.775 179.496 120.863 180.053 119.34 181.137C118.373 181.811 116.938 181.986 116.352 181.488C116.117 181.313 114.916 179.115 113.627 176.625L111.283 172.055H109.906H108.5V176.42C108.5 179.555 108.383 180.844 108.119 181.078C107.562 181.547 106.244 181.811 105.453 181.606C103.783 181.195 103.812 181.459 103.812 169.477C103.812 163.412 103.93 158.285 104.047 158.109C104.633 157.201 105.482 157.084 109.818 157.201C112.25 157.289 114.828 157.494 115.59 157.699ZM141.752 157.846C142.221 158.285 142.484 158.9 142.484 159.457C142.484 160.014 142.221 160.629 141.752 161.068C141.049 161.772 140.932 161.801 136.479 161.801H131.938V164.731V167.66H134.516C137.533 167.66 138.383 168.07 138.383 169.477C138.383 171.147 137.768 171.469 134.662 171.469H131.938V174.545V177.621H136.742C141.4 177.621 141.576 177.65 142.016 178.266C142.279 178.617 142.484 179.203 142.484 179.525C142.484 179.848 142.279 180.434 142.016 180.785C141.576 181.43 141.488 181.43 134.574 181.43C127.66 181.43 127.572 181.43 127.133 180.785C126.723 180.229 126.664 178.647 126.664 169.652C126.664 163.676 126.781 158.871 126.957 158.461C127.367 157.348 128.51 157.172 135.102 157.143C141.049 157.113 141.049 157.113 141.752 157.846ZM187.221 157.289C188.686 157.699 188.861 160.981 187.426 161.508C187.016 161.684 185.697 161.801 184.496 161.801H182.328V171.293C182.328 178.881 182.24 180.844 181.947 181.107C181.391 181.547 179.838 181.84 178.988 181.606C177.318 181.195 177.348 181.313 177.348 171.176V161.859L174.682 161.742C171.664 161.654 171.195 161.332 171.195 159.457C171.195 158.344 171.605 157.582 172.367 157.318C172.982 157.113 186.43 157.084 187.221 157.289ZM153.324 158.197C153.793 158.666 155.551 161.596 157.191 164.731L160.209 170.443L160.355 164.35C160.473 159.369 160.59 158.197 160.941 157.992C162.348 157.055 164.633 157.348 165.043 158.461C165.219 158.871 165.336 163.764 165.336 169.74V180.287L164.574 181.049C163.93 181.693 163.637 181.781 162.494 181.635C161.762 181.547 160.941 181.254 160.648 180.961C160.355 180.639 158.715 177.826 156.986 174.691C155.287 171.557 153.764 168.861 153.588 168.686C153.441 168.539 153.324 170.707 153.324 174.604C153.324 179.408 153.236 180.844 152.943 181.107C152.387 181.547 150.834 181.84 149.984 181.606C148.314 181.195 148.344 181.459 148.344 169.594C148.344 156.938 148.227 157.494 151.186 157.436C152.152 157.406 152.621 157.582 153.324 158.197Z" fill="#FD8D14"/>
<path d="M108.5 165.023V168.246H111.078C112.924 168.246 113.832 168.129 114.271 167.807C115.18 167.162 115.648 165.316 115.238 163.852C114.77 162.152 114.096 161.801 111.078 161.801H108.5V165.023Z" fill="#FD8D14"/>
</g>
<defs>
<linearGradient id="paint0_linear_32_54" x1="146" y1="0" x2="146" y2="282" gradientUnits="userSpaceOnUse">
<stop offset="0.329662" stop-color="white"/>
<stop offset="1" stop-color="#DFDFDF"/>
</linearGradient>
<clipPath id="clip0_32_54">
<rect width="292" height="282" fill="white"/>
</clipPath>
</defs>
</svg>
