<svg width="292" height="282" viewBox="0 0 292 282" fill="none" xmlns="http://www.w3.org/2000/svg">
<g clip-path="url(#clip0_32_51)">
<rect width="292" height="282" fill="url(#paint0_linear_32_51)"/>
<circle cx="146" cy="826.801" r="674.382" fill="white"/>
<g clip-path="url(#clip1_32_51)">
<path d="M164.164 66.5859C159.74 67.5234 154.672 69.6621 150.834 72.2402C148.578 73.7344 74.8672 147.24 73.4609 149.408C71.8203 151.928 71 154.828 71 158.197C71 161.42 71.4395 163.236 72.8164 166.049C73.5781 167.572 76.7422 170.854 96.4297 190.57C116.146 210.258 119.428 213.422 120.951 214.184C123.764 215.561 125.58 216 128.803 216C132.172 216 135.072 215.18 137.592 213.539C139.76 212.133 213.266 138.422 214.76 136.166C217.397 132.211 219.711 126.645 220.531 122.25C221.205 118.676 221.234 80.4726 220.561 77.8652C219.154 72.5039 214.496 67.8457 209.135 66.4394C207.641 66.0586 204.418 66 187.016 66.0293C168.441 66.0293 166.42 66.0879 164.164 66.5859ZM195.102 90.1992C198.236 91.6934 198.236 96.1172 195.102 97.6113C193.549 98.373 193.08 98.373 191.498 97.6113C188.363 96.0879 188.334 91.8398 191.439 90.2578C192.699 89.6133 193.813 89.584 195.102 90.1992ZM171.371 95.1211C173.129 96.8789 172.982 97.1133 167.475 102.68L162.553 107.602L165.98 111.029L169.408 114.457L172.309 111.615C173.92 110.062 175.385 108.773 175.59 108.773C176.645 108.773 178.227 110.385 178.227 111.498C178.227 111.674 176.938 113.139 175.385 114.691L172.514 117.562L176.029 121.078L179.545 124.594L184.525 119.613C188.129 116.01 189.711 114.633 190.209 114.633C190.59 114.633 191.322 115.072 191.879 115.629C193.695 117.445 193.666 117.504 186.342 124.828C180.805 130.365 179.691 131.332 178.959 131.332C178.197 131.332 176.557 129.809 166.889 120.141C158.217 111.469 155.668 108.773 155.668 108.217C155.668 107.191 168.676 94.125 169.672 94.125C170.082 94.125 170.785 94.5351 171.371 95.1211ZM153.617 130.893L163.432 140.707L167.855 136.283L172.309 131.889L173.275 132.299C174.301 132.709 175.59 134.291 175.59 135.111C175.59 135.346 172.924 138.246 169.643 141.498C164.604 146.566 163.578 147.445 162.846 147.445C162.084 147.445 160.473 145.951 150.775 136.254C142.279 127.758 139.555 124.857 139.555 124.33C139.555 123.891 140.053 123.158 140.844 122.367C143.041 120.141 142.484 119.76 153.617 130.893ZM144.447 141.645C152.24 145.775 158.539 149.291 158.773 149.643C159.594 150.873 157.836 154.184 156.342 154.184C156.049 154.184 154.496 153.451 152.914 152.572C151.303 151.693 149.926 150.961 149.838 150.961C149.721 150.961 147.934 152.719 145.795 154.828L141.957 158.725L143.744 161.918C145.443 164.965 145.502 165.141 145.092 165.873C144.564 166.811 142.631 167.953 141.547 167.953C140.932 167.953 140.58 167.689 140.023 166.84C138.031 163.705 125.404 139.33 125.404 138.598C125.404 136.84 128.041 134.262 129.828 134.262C130.209 134.262 136.801 137.572 144.447 141.645ZM117.963 149.496C118.373 149.818 118.871 150.551 119.047 151.137C119.34 151.986 119.311 152.279 118.9 152.895C118.637 153.305 118.197 153.715 117.934 153.803C113.598 155.268 110.844 158.051 110.844 160.98C110.873 162.943 112.133 164.145 114.184 164.145C114.77 164.145 116.996 163.5 119.105 162.709C124.145 160.863 126.107 160.453 128.158 160.893C130.502 161.391 132.113 162.328 133.813 164.174C135.98 166.518 136.713 168.187 136.742 170.766C136.771 173.578 135.541 176.098 132.816 178.793C130.092 181.518 127.045 183.041 124.262 183.041C122.504 183.041 122.182 182.953 121.508 182.279C120.98 181.752 120.688 181.078 120.6 180.229C120.395 178.5 120.98 178.002 123.676 177.621C126.342 177.24 127.455 176.801 128.949 175.453C130.385 174.135 131.059 172.787 131.059 171.176C131.059 169.389 130.355 168.305 128.803 167.602C127.016 166.811 125.844 166.986 120.512 168.832C114.037 171.059 111.488 170.854 108.266 167.836C106.215 165.932 105.424 164.203 105.424 161.625C105.424 159.838 105.57 159.281 106.508 157.377C107.885 154.594 111.254 151.254 114.066 149.848C116.234 148.764 116.938 148.705 117.963 149.496Z" fill="#FD8D14"/>
<path d="M132.23 141.176C132.23 141.469 139.291 154.184 139.525 154.33C139.643 154.389 141.078 153.1 142.719 151.459L145.678 148.471L140.961 145.834C138.354 144.369 135.336 142.699 134.223 142.084C133.139 141.469 132.23 141.059 132.23 141.176Z" fill="#FD8D14"/>
</g>
</g>
<defs>
<linearGradient id="paint0_linear_32_51" x1="146" y1="0" x2="146" y2="282" gradientUnits="userSpaceOnUse">
<stop offset="0.329662" stop-color="white"/>
<stop offset="1" stop-color="#DFDFDF"/>
</linearGradient>
<clipPath id="clip0_32_51">
<rect width="292" height="282" fill="white"/>
</clipPath>
<clipPath id="clip1_32_51">
<rect width="150" height="150" fill="white" transform="translate(71 66)"/>
</clipPath>
</defs>
</svg>
