<svg width="52" height="53" viewBox="0 0 52 53" fill="none" xmlns="http://www.w3.org/2000/svg">
<rect y="0.5" width="52" height="52" rx="26" fill="#EBCC1F"/>
<path d="M25.6349 19.3874C18.8981 22.9053 13.3372 25.8302 13.2764 25.886C13.099 26.0431 13.0229 26.2408 13.0229 26.5247C13.0229 26.839 13.1598 27.0924 13.393 27.2141C13.4792 27.2597 15.0759 27.8173 16.9414 28.456C19.7801 29.4242 20.3478 29.6017 20.4137 29.551C20.4796 29.5003 28.2151 22.8901 33.629 18.262L34.4907 17.5219L34.1055 17.9781C32.4631 19.9298 23.5617 30.6915 23.582 30.7067C23.5972 30.7219 32.3262 33.7178 34.7442 34.539C35.2764 34.7164 35.682 34.61 35.905 34.2247C35.981 34.098 36.3257 31.8676 37.4866 24.0712C38.3078 18.5712 38.9769 13.9482 38.9769 13.7961C38.9769 13.2892 38.6728 12.985 38.1658 12.985C37.8972 12.9901 37.5423 13.1675 25.6349 19.3874Z" fill="white"/>
<path d="M22.4517 34.5899C22.4517 37.1904 22.4517 37.1955 22.5683 37.4185C22.7102 37.7024 22.8876 37.8291 23.1765 37.8595C23.4604 37.895 23.7139 37.8139 23.8862 37.6314C24.1447 37.3627 26.9125 33.5457 26.877 33.5153C26.8517 33.495 25.8784 33.1554 24.7074 32.7549C23.5365 32.3544 22.548 32.0199 22.5176 32.0047C22.4669 31.9895 22.4517 32.5268 22.4517 34.5899Z" fill="white"/>
</svg>
