<svg width="29" height="28" viewBox="0 0 29 28" fill="none" xmlns="http://www.w3.org/2000/svg">
<path d="M21.7958 16.5797C21.0645 16.5803 20.3443 16.7588 19.6974 17.0999C19.0505 17.4409 18.4963 17.9343 18.0826 18.5373L11.7869 15.6946C12.2341 14.6149 12.2358 13.402 11.7917 12.3209L18.0787 9.46375C18.6918 10.3505 19.6024 10.9881 20.6454 11.2609C21.6883 11.5337 22.7945 11.4237 23.7633 10.9509C24.7321 10.478 25.4993 9.67354 25.9257 8.68345C26.3522 7.69336 26.4097 6.58321 26.0878 5.55437C25.7658 4.52553 25.0858 3.64615 24.1711 3.07573C23.2563 2.50532 22.1674 2.28165 21.1019 2.44531C20.0363 2.60897 19.0647 3.14911 18.3633 3.96776C17.6619 4.7864 17.2772 5.82933 17.2788 6.90736C17.2829 7.16252 17.3088 7.41685 17.3562 7.6676L10.6727 10.7047C10.0308 10.1033 9.22715 9.7025 8.36057 9.55154C7.494 9.40058 6.6022 9.50603 5.79474 9.85495C4.98728 10.2039 4.29932 10.7811 3.81539 11.5156C3.33145 12.2501 3.07262 13.11 3.07069 13.9897C3.06876 14.8693 3.32381 15.7303 3.80451 16.467C4.28521 17.2036 4.97062 17.7838 5.77654 18.1363C6.58247 18.4888 7.47379 18.5981 8.34102 18.451C9.20825 18.3038 10.0136 17.9066 10.6582 17.308L17.3591 20.3335C17.3126 20.584 17.287 20.838 17.2827 21.0928C17.2825 21.9856 17.5471 22.8585 18.0431 23.601C18.539 24.3435 19.244 24.9222 20.0689 25.264C20.8937 25.6058 21.8015 25.6952 22.6772 25.5211C23.5529 25.347 24.3573 24.917 24.9887 24.2856C25.6201 23.6543 26.05 22.8499 26.2241 21.9741C26.3983 21.0984 26.3088 20.1907 25.967 19.3658C25.6253 18.5409 25.0465 17.836 24.3041 17.34C23.5616 16.8441 22.6887 16.5795 21.7958 16.5797ZM21.7958 4.32776C22.306 4.32757 22.8049 4.4787 23.2292 4.76203C23.6536 5.04536 23.9843 5.44818 24.1797 5.91952C24.3751 6.39086 24.4264 6.90956 24.3269 7.41002C24.2275 7.91048 23.9819 8.37021 23.6212 8.73107C23.2604 9.09193 22.8008 9.33771 22.3004 9.43733C21.8 9.53694 21.2812 9.48591 20.8098 9.29069C20.3384 9.09548 19.9355 8.76485 19.652 8.34061C19.3685 7.91638 19.2172 7.4176 19.2172 6.90736C19.2177 6.22353 19.4895 5.56784 19.9729 5.08421C20.4564 4.60058 21.112 4.32853 21.7958 4.32776ZM7.61041 16.5797C7.10018 16.5799 6.60134 16.4287 6.177 16.1454C5.75266 15.8621 5.42188 15.4592 5.22648 14.9879C5.03109 14.5166 4.97987 13.9979 5.07929 13.4974C5.17872 12.9969 5.42433 12.5372 5.78505 12.1763C6.14578 11.8155 6.60542 11.5697 7.10584 11.4701C7.60626 11.3705 8.12498 11.4215 8.5964 11.6167C9.06781 11.8119 9.47075 12.1426 9.75424 12.5668C10.0377 12.991 10.1891 13.4898 10.1891 14.0001C10.1883 14.6838 9.91639 15.3393 9.433 15.8229C8.9496 16.3065 8.29416 16.5786 7.61041 16.5797ZM21.7958 23.6724C21.2856 23.6724 20.7869 23.5211 20.3627 23.2376C19.9384 22.9542 19.6078 22.5513 19.4126 22.0799C19.2173 21.6086 19.1662 21.0899 19.2658 20.5895C19.3653 20.0891 19.611 19.6295 19.9718 19.2687C20.3325 18.9079 20.7922 18.6623 21.2926 18.5627C21.7929 18.4632 22.3116 18.5143 22.783 18.7095C23.2543 18.9048 23.6572 19.2354 23.9407 19.6596C24.2241 20.0838 24.3754 20.5826 24.3754 21.0928C24.3749 21.7768 24.103 22.4326 23.6193 22.9162C23.1356 23.3999 22.4798 23.6718 21.7958 23.6724Z" fill="black"/>
</svg>
