<svg width="11" height="11" viewBox="0 0 11 11" fill="none" xmlns="http://www.w3.org/2000/svg">
<path d="M5.49033 0.963018L5.39162 1.01156L4.70067 2.34966C4.32119 3.08414 3.99874 3.69832 3.98558 3.71098C3.97462 3.72364 3.28805 3.82706 2.4611 3.94103C0.785264 4.17319 0.800619 4.17108 0.715072 4.33571C0.653654 4.44968 0.651461 4.52988 0.706298 4.64174C0.734814 4.70084 1.07919 5.03431 1.84473 5.74979C2.53787 6.39773 2.94148 6.78819 2.94367 6.81563C2.94586 6.83884 2.8318 7.49312 2.69361 8.26981C2.55542 9.0465 2.44136 9.71555 2.44136 9.75354C2.44136 9.85485 2.51594 9.97937 2.60587 10.0342C2.67168 10.0743 2.70677 10.0786 2.82083 10.0722C2.95025 10.0617 3.0336 10.0237 4.31242 9.37364L5.66581 8.6877L7.02139 9.37153C7.76499 9.74932 8.41207 10.0659 8.45813 10.0743C8.67748 10.1229 8.89025 9.96671 8.89025 9.75776C8.89025 9.71555 8.77619 9.04439 8.638 8.2677C8.49981 7.4889 8.38575 6.83673 8.38575 6.81985C8.38575 6.80085 8.88367 6.31753 9.49347 5.74768C10.6231 4.68606 10.667 4.63963 10.667 4.48767C10.667 4.45601 10.6451 4.38636 10.6187 4.33571C10.531 4.16897 10.5485 4.17319 8.85735 3.93892C8.02601 3.82284 7.34164 3.72153 7.33726 3.71098C7.33287 3.70043 7.017 3.08836 6.63533 2.35177L5.93999 1.01156L5.84129 0.963018C5.78864 0.937692 5.70968 0.916586 5.66581 0.916586C5.62194 0.916586 5.54297 0.937692 5.49033 0.963018Z" fill="#FD8D14"/>
</svg>
