<svg width="65" height="51" viewBox="0 0 65 51" fill="none" xmlns="http://www.w3.org/2000/svg">
<path d="M3.88278 4.36584C3.88278 4.36584 1.55481 7.25143 0.280273 7.53917C0.280273 7.53917 1.50441 7.80903 3.48774 7.53917C5.47107 7.26931 5.3719 7.0661 5.3719 7.0661L3.88278 4.36584Z" fill="#FD8D14"/>
<path d="M7.6819 12.7381C7.004 10.3581 6.06923 8.05123 4.89224 5.87282C4.55247 5.24368 4.19157 4.62755 3.81279 4.02117C3.72988 3.88787 3.51854 4.01142 3.60145 4.14472C5.2824 6.83522 6.57807 9.75169 7.44618 12.8031C7.49007 12.9527 7.7258 12.8893 7.6819 12.7381Z" fill="#263238"/>
<path d="M19.6781 26.5548H5.74279C5.03888 26.5548 4.46826 25.9842 4.46826 25.2803V13.9054C4.46826 13.2015 5.03888 12.6309 5.74279 12.6309H19.6781C20.382 12.6309 20.9527 13.2015 20.9527 13.9054V25.2803C20.9527 25.9842 20.382 26.5548 19.6781 26.5548Z" fill="#FD8D14"/>
<path d="M9.97042 18.0082C9.3914 17.9744 8.74664 17.994 8.15843 17.9968C8.09922 17.9971 8.05127 18.045 8.05127 18.1043V18.6744C8.05127 18.7325 8.09752 18.7801 8.1556 18.7815C8.82618 18.7975 9.49856 18.7938 10.1663 18.8466C10.581 18.8794 10.916 19.1274 11.0518 19.5341C11.2228 20.0458 11.0872 20.5197 10.6872 20.8726C10.5284 21.0126 10.4956 21.1386 10.5029 21.3179C10.5097 21.4863 10.5044 21.6552 10.5044 21.8435C11.4639 21.4938 12.1343 20.4139 11.7937 19.378C11.5367 18.5962 10.8864 18.0616 9.97042 18.0082Z" fill="white"/>
<rect x="8.05127" y="19.6307" width="1.83591" height="0.694525" rx="0.347263" fill="#3B4051"/>
<rect x="8.05127" y="21.1489" width="1.83591" height="0.694525" rx="0.347263" fill="#3B4051"/>
<path d="M12.5957 19.9372H12.9303V21.052H12.6848V20.1726H12.5957V19.9372Z" fill="#3B4051"/>
<path d="M13.1737 19.9372H13.5083V21.052H13.2628V20.1726H13.1737V19.9372Z" fill="#3B4051"/>
<path d="M13.9398 19.8229H14.2256L14.4896 20.5997L14.4509 20.5829L14.6813 20.0095L14.7939 20.3441L14.4375 21.1091L13.9398 19.8229ZM14.5602 19.8229H14.8023L15.1067 20.5745L15.063 20.5677L15.2899 19.8229H15.5522L15.0747 21.1058L14.5602 19.8229Z" fill="#3B4051"/>
<path d="M15.8862 21.0722C15.8178 21.0722 15.7556 21.0587 15.6995 21.0318C15.6446 21.0038 15.6009 20.9612 15.5684 20.904C15.5359 20.8468 15.5196 20.774 15.5196 20.6854C15.5196 20.6025 15.5364 20.5307 15.57 20.4702C15.6037 20.4097 15.648 20.3632 15.7029 20.3307C15.7578 20.297 15.8161 20.2802 15.8777 20.2802C15.9506 20.2802 16.0055 20.2925 16.0425 20.3172C16.0806 20.3407 16.112 20.3671 16.1367 20.3962L16.1266 20.4248L16.1484 20.3172H16.367V21.052H16.1316V20.8922L16.1501 20.9427C16.1479 20.9427 16.1412 20.9494 16.13 20.9629C16.1187 20.9752 16.1019 20.9903 16.0795 21.0083C16.0582 21.0251 16.0313 21.0396 15.9988 21.052C15.9674 21.0654 15.9299 21.0722 15.8862 21.0722ZM15.9534 20.8805C15.996 20.8805 16.0319 20.8715 16.061 20.8536C16.0902 20.8345 16.1137 20.8065 16.1316 20.7695V20.5896C16.1182 20.5537 16.0946 20.5251 16.061 20.5038C16.0285 20.4825 15.9898 20.4719 15.945 20.4719C15.9114 20.4719 15.88 20.4809 15.8508 20.4988C15.8228 20.5156 15.8004 20.5391 15.7836 20.5694C15.7668 20.5997 15.7584 20.6344 15.7584 20.6737C15.7584 20.7129 15.7673 20.7482 15.7853 20.7796C15.8032 20.811 15.8267 20.8356 15.8559 20.8536C15.8862 20.8715 15.9187 20.8805 15.9534 20.8805Z" fill="#3B4051"/>
<path d="M16.6684 21.4051L17.1577 20.3172H17.3696L16.8954 21.4051H16.6684ZM16.8652 21.0553L16.5053 20.3172H16.7693L17.0467 20.9376L16.8652 21.0553Z" fill="#3B4051"/>
<g opacity="0.3">
<path d="M4.57383 14.0257C8.81035 14.0257 13.0485 14.0257 17.285 14.0257C18.4718 14.0257 19.6601 14.0257 20.8469 14.0257C21.0046 14.0257 21.0046 13.7819 20.8469 13.7819C16.6104 13.7819 12.3722 13.7819 8.1357 13.7819C6.94895 13.7819 5.76058 13.7819 4.57383 13.7819C4.41614 13.7819 4.41614 14.0257 4.57383 14.0257Z" fill="black"/>
</g>
<path d="M21.3896 26.5549H6.62034C6.26756 26.5549 5.98145 26.841 5.98145 27.1938C5.98145 27.545 6.26431 27.8295 6.61383 27.8327C8.07695 27.8457 11.5722 27.8701 11.6599 27.8262C11.7705 27.7709 13.7717 30.7248 14.1066 30.5915L14.9227 33.3226L23.3258 30.2257L21.3896 26.5549Z" fill="#263238"/>
<path opacity="0.3" d="M21.3896 26.5549H6.62034C6.26756 26.5549 5.98145 26.841 5.98145 27.1938C5.98145 27.545 6.26431 27.8295 6.61383 27.8327C8.07695 27.8457 11.5722 27.8701 11.6599 27.8262C11.7705 27.7709 13.7717 30.7248 14.1066 30.5915L14.9227 33.3226L23.3258 30.2257L21.3896 26.5549Z" fill="black"/>
<path d="M21.2776 27.6344C21.2353 27.5076 20.177 24.1213 23.0984 24.2904C26.0197 24.4594 36.5167 28.3773 36.6452 29.2324C36.772 30.0892 34.0636 31.4011 34.0636 31.4011C34.0636 31.4011 31.9469 35.1678 33.4702 37.1576C34.9935 39.1475 36.8142 39.4856 38.9731 39.5279C41.132 39.5701 45.0272 39.232 44.8565 34.9142C44.6874 30.5964 44.7297 27.4214 43.8404 25.3471C42.9512 23.2727 43.1625 20.7757 43.1625 20.6489C43.1625 20.522 45.6173 19.5922 45.6173 19.5922L52.3899 29.5625L49.4685 37.2861C49.4685 37.2861 45.2352 42.4086 45.1084 42.4931C44.9816 42.5776 35.5836 44.5675 35.4568 44.5675C35.33 44.5675 27.1593 43.805 27.1171 43.636C27.0748 43.4669 25.4231 39.9115 25.4231 39.9115L21.2776 27.6344Z" fill="#263238"/>
<path d="M58.1694 28.8748C58.1694 28.8748 59.153 29.3803 59.8585 30.7362C60.5641 32.092 60.1186 33.1129 60.1186 33.1129L58.1694 28.8748Z" fill="#FD8D14"/>
<path opacity="0.5" d="M58.1694 28.8748C58.1694 28.8748 59.153 29.3803 59.8585 30.7362C60.5641 32.092 60.1186 33.1129 60.1186 33.1129L58.1694 28.8748Z" fill="white"/>
<path d="M27.2096 44.9658V45.499H26.0977V46.2094C26.0977 46.2094 32.6345 46.5199 32.9011 46.2094C33.1677 45.8989 33.7465 44.5073 33.7465 44.5073L27.2096 44.9658Z" fill="#263238"/>
<path d="M16.1569 50.3987C20.7287 50.3987 24.4348 46.7013 24.4348 42.1403C24.4348 37.5793 20.7287 33.8818 16.1569 33.8818C11.5851 33.8818 7.87891 37.5793 7.87891 42.1403C7.87891 46.7013 11.5851 50.3987 16.1569 50.3987Z" fill="#263238"/>
<path opacity="0.4" d="M16.1569 47.2043C18.96 47.2043 21.2323 44.937 21.2323 42.1403C21.2323 39.3435 18.96 37.0763 16.1569 37.0763C13.3539 37.0763 11.0815 39.3435 11.0815 42.1403C11.0815 44.937 13.3539 47.2043 16.1569 47.2043Z" fill="white"/>
<g opacity="0.3">
<path d="M16.5619 37.99V40.5862C16.5619 40.8089 16.3798 40.991 16.1571 40.991H16.1538C15.9295 40.991 15.749 40.8106 15.749 40.5862V37.99C15.749 37.7673 15.9311 37.5852 16.1538 37.5852H16.1571C16.3814 37.5852 16.5619 37.7657 16.5619 37.99Z" fill="white"/>
</g>
<g opacity="0.3">
<path d="M16.5619 43.6945V46.2907C16.5619 46.5134 16.3798 46.6955 16.1571 46.6955H16.1538C15.9295 46.6955 15.749 46.515 15.749 46.2907V43.6945C15.749 43.4717 15.9311 43.2897 16.1538 43.2897H16.1571C16.3814 43.2897 16.5619 43.4717 16.5619 43.6945Z" fill="white"/>
</g>
<g opacity="0.3">
<path d="M17.7045 41.716C17.511 41.8249 17.2656 41.7566 17.155 41.5648C17.0428 41.3713 17.1079 41.1242 17.3013 41.0121L19.5545 39.7083C19.5545 39.7083 19.5545 39.7083 19.5561 39.7083C19.7496 39.5977 19.9983 39.6644 20.1089 39.8578C20.1089 39.8578 20.1089 39.8578 20.1089 39.8595C20.221 40.0529 20.1528 40.3 19.9593 40.4122L17.7077 41.716C17.7077 41.7127 17.7061 41.7144 17.7045 41.716Z" fill="white"/>
</g>
<g opacity="0.3">
<path d="M12.2014 44.4066C12.0892 44.2115 12.1559 43.9644 12.351 43.8538L14.6025 42.55C14.796 42.4379 15.0464 42.5029 15.1601 42.6963C15.2723 42.8914 15.2057 43.1402 15.0106 43.2523L12.759 44.5561C12.5623 44.6683 12.3136 44.6016 12.2014 44.4066Z" fill="white"/>
</g>
<g opacity="0.3">
<path d="M20.1091 44.418C19.9969 44.6114 19.7498 44.6781 19.5547 44.5659L17.3016 43.2621C17.1081 43.1483 17.0414 42.8996 17.1552 42.7061C17.2674 42.5127 17.5161 42.4476 17.7096 42.5598L19.9612 43.8636C19.9612 43.8636 19.9612 43.8636 19.9628 43.8636C20.1562 43.9774 20.2229 44.2245 20.1091 44.418Z" fill="white"/>
</g>
<g opacity="0.3">
<path d="M15.1555 41.5681C15.0417 41.7615 14.7946 41.8249 14.6011 41.7127L12.3496 40.409C12.3496 40.409 12.3496 40.409 12.3479 40.409C12.1545 40.2968 12.0878 40.0497 12.2 39.8562C12.3122 39.6611 12.5625 39.5945 12.7576 39.7083L15.0092 41.0121C15.0092 41.0121 15.0092 41.0121 15.0108 41.0121C15.2043 41.1243 15.2709 41.3714 15.1587 41.5648C15.1571 41.5648 15.1571 41.5664 15.1555 41.5681Z" fill="white"/>
</g>
<path d="M16.1569 41.4591C16.5341 41.4591 16.8397 41.7647 16.8397 42.1403C16.8397 42.5158 16.5341 42.8214 16.1569 42.8214C15.7798 42.8214 15.4741 42.5158 15.4741 42.1403C15.4741 41.7631 15.7798 41.4591 16.1569 41.4591Z" fill="#263238"/>
<path d="M55.9581 50.3987C60.5299 50.3987 64.2361 46.7013 64.2361 42.1403C64.2361 37.5793 60.5299 33.8818 55.9581 33.8818C51.3863 33.8818 47.6802 37.5793 47.6802 42.1403C47.6802 46.7013 51.3863 50.3987 55.9581 50.3987Z" fill="#263238"/>
<path opacity="0.4" d="M55.9582 47.2043C58.7612 47.2043 61.0336 44.937 61.0336 42.1403C61.0336 39.3435 58.7612 37.0763 55.9582 37.0763C53.1551 37.0763 50.8828 39.3435 50.8828 42.1403C50.8828 44.937 53.1551 47.2043 55.9582 47.2043Z" fill="white"/>
<g opacity="0.3">
<path d="M56.3626 37.99V40.5862C56.3626 40.8089 56.1806 40.991 55.9579 40.991H55.9546C55.7303 40.991 55.5498 40.8106 55.5498 40.5862V37.99C55.5498 37.7673 55.7319 37.5852 55.9546 37.5852H55.9579C56.1822 37.5852 56.3626 37.7657 56.3626 37.99Z" fill="white"/>
</g>
<g opacity="0.3">
<path d="M56.3626 43.6945V46.2907C56.3626 46.5134 56.1806 46.6955 55.9579 46.6955H55.9546C55.7303 46.6955 55.5498 46.515 55.5498 46.2907V43.6945C55.5498 43.4717 55.7319 43.2897 55.9546 43.2897H55.9579C56.1822 43.2897 56.3626 43.4717 56.3626 43.6945Z" fill="white"/>
</g>
<g opacity="0.3">
<path d="M57.5053 41.716C57.3118 41.8249 57.0663 41.7566 56.9558 41.5648C56.8436 41.3713 56.9086 41.1242 57.1021 41.0121L59.3553 39.7083C59.3553 39.7083 59.3553 39.7083 59.3569 39.7083C59.5504 39.5977 59.7991 39.6644 59.9097 39.8578C59.9097 39.8578 59.9097 39.8578 59.9097 39.8595C60.0218 40.0529 59.9535 40.3 59.7601 40.4122L57.5085 41.716C57.5085 41.7127 57.5069 41.7144 57.5053 41.716Z" fill="white"/>
</g>
<g opacity="0.3">
<path d="M52.0027 44.4066C51.8905 44.2115 51.9572 43.9644 52.1522 43.8538L54.4038 42.55C54.5973 42.4379 54.8476 42.5029 54.9614 42.6963C55.0736 42.8914 55.0069 43.1402 54.8119 43.2523L52.5603 44.5561C52.3636 44.6683 52.1149 44.6016 52.0027 44.4066Z" fill="white"/>
</g>
<g opacity="0.3">
<path d="M59.9099 44.418C59.7977 44.6114 59.5506 44.6781 59.3555 44.5659L57.1023 43.2621C56.9089 43.1483 56.8422 42.8996 56.956 42.7061C57.0682 42.5127 57.3169 42.4476 57.5104 42.5598L59.762 43.8636C59.762 43.8636 59.762 43.8636 59.7636 43.8636C59.957 43.9774 60.0221 44.2245 59.9099 44.418Z" fill="white"/>
</g>
<g opacity="0.3">
<path d="M54.9568 41.5681C54.843 41.7615 54.5959 41.8249 54.4024 41.7127L52.1508 40.409C52.1508 40.409 52.1508 40.409 52.1492 40.409C51.9558 40.2968 51.8891 40.0497 52.0013 39.8562C52.1134 39.6611 52.3638 39.5945 52.5589 39.7083L54.8104 41.0121C54.8104 41.0121 54.8104 41.0121 54.8121 41.0121C55.0055 41.1243 55.0722 41.3714 54.96 41.5648C54.9584 41.5648 54.9584 41.5664 54.9568 41.5681Z" fill="white"/>
</g>
<path d="M55.9582 41.4591C56.3353 41.4591 56.641 41.7647 56.641 42.1403C56.641 42.5158 56.3353 42.8214 55.9582 42.8214C55.581 42.8214 55.2754 42.5158 55.2754 42.1403C55.2754 41.7631 55.581 41.4591 55.9582 41.4591Z" fill="#263238"/>
<path d="M41.4067 17.7096C41.4067 17.7096 41.6506 16.9781 41.6295 16.9781C41.6083 16.9781 43.6193 15.3947 43.6193 15.3947C43.6193 15.3947 45.4677 16.3294 45.9343 16.8561C46.4008 17.3845 46.4626 19.1711 46.4626 19.1711C46.4626 19.1711 45.7115 19.8815 45.6303 19.9222C45.549 19.9628 43.1527 21.3641 43.0519 21.2829C42.9495 21.2016 41.4067 17.7096 41.4067 17.7096Z" fill="#FD8D14"/>
<path d="M6.17803 36.4536C6.1 36.5707 5.24814 37.6062 7.81834 37.9606C10.3885 38.315 25.9008 40.8413 26.078 40.8413C26.2552 40.8413 29.8008 36.4536 28.6043 33.1307C27.4078 29.8062 22.178 28.4325 19.3867 28.6097C16.5921 28.7869 11.1412 29.0096 6.17803 36.4536Z" fill="#FD8D14"/>
<path d="M25.1742 42.2199L25.0376 45.4274C25.0376 45.4274 41.7284 45.4176 44.0044 44.5674C46.0397 43.8082 46.6494 42.8913 46.9241 41.7664C47.7093 41.7664 48.4506 41.412 48.94 40.7974C50.2291 39.1848 53.4025 36.1594 58.8696 36.5365C59.0289 36.5479 59.1882 36.5479 59.3476 36.5349C60.0645 36.4748 62.1193 36.2846 62.0055 36.0944C61.8674 35.8635 58.2762 31.0304 52.3376 31.6741C52.3376 31.6741 54.1795 30.845 53.4431 29.5559C52.7067 28.2667 45.9845 19.7026 45.9845 19.7026C45.9845 19.7026 43.7752 21.6356 45.3862 23.892C46.9973 26.1485 48.9318 29.5543 48.9318 30.8906C48.9318 32.2252 48.0914 39.3473 44.5116 42.033C42.8534 43.2799 25.1742 42.2199 25.1742 42.2199Z" fill="#FD8D14"/>
<path opacity="0.3" d="M8.09668 35.2084C8.09668 35.2084 14.0434 28.7512 21.0663 29.2617C28.0893 29.7721 8.94691 36.7382 8.09668 35.2084Z" fill="white"/>
<path d="M55.1618 32.2627C55.1618 32.2627 54.4985 30.4663 56.1844 29.6096C57.8702 28.7529 58.1189 28.7805 58.1189 28.7805L60.3851 33.0918C60.3851 33.0918 59.9852 33.799 58.2701 33.8819C56.5567 33.9648 55.2756 32.3098 55.2756 32.3098" fill="#FD8D14"/>
<path d="M39.4492 17.4803L42.2437 17.7502L42.9086 17.1682C42.9086 17.1682 43.8986 17.2381 44.0807 17.4462C44.2628 17.6543 44.3831 18.2428 44.3831 18.2428C44.3831 18.2428 44.5635 18.7386 44.0888 18.9061C44.0888 18.9061 44.1913 19.2637 43.6532 19.4685C43.6532 19.4685 43.5589 18.0575 43.0045 18.1875C42.4502 18.3176 42.6274 19.9676 42.2876 19.9237C41.6552 19.8441 41.6763 19.4198 41.6763 19.4198L39.2573 19.2523L39.4492 17.4803Z" fill="#FAAC6D"/>
<path d="M42.79 19.9969C43.3269 19.9969 43.7622 19.5617 43.7622 19.0248C43.7622 18.4879 43.3269 18.0526 42.79 18.0526C42.2531 18.0526 41.8179 18.4879 41.8179 19.0248C41.8179 19.5617 42.2531 19.9969 42.79 19.9969Z" fill="#263238"/>
<path opacity="0.3" d="M28.6027 33.1309C28.0987 31.7312 26.8779 30.6777 25.4277 29.9413C25.47 29.9884 27.2079 31.9441 27.4615 32.9894C27.7167 34.0477 25.8651 37.4324 24.4345 38.772C23.0022 40.1115 17.8293 39.5344 17.7383 39.5198C22.0008 40.2026 25.9886 40.8447 26.078 40.8447C26.2536 40.8415 29.7992 36.4538 28.6027 33.1309Z" fill="black"/>
<path opacity="0.3" d="M52.3378 31.6774C52.3378 31.6774 51.0681 32.2805 50.6097 32.8544C50.1512 33.4266 49.3628 35.3189 49.3628 35.3189C49.3628 35.3189 50.5755 34.932 50.8503 33.8867C51.125 32.8414 51.6404 32.3114 51.6404 32.3114L52.3378 31.6774Z" fill="black"/>
<path opacity="0.3" d="M55.043 31.6774C55.043 31.6774 57.7904 32.526 59.5965 33.7388C59.5965 33.7388 57.7123 31.3816 55.043 31.6774Z" fill="black"/>
<path opacity="0.3" d="M7.85596 36.6488C12.9346 37.5283 21.0207 38.9361 26.0993 39.8173" stroke="black" stroke-miterlimit="10" stroke-linecap="round" stroke-linejoin="round"/>
<path d="M33.859 31.3328C33.7582 31.2986 23.3148 27.9627 22.7881 27.7742" stroke="black" stroke-miterlimit="10" stroke-linecap="round" stroke-linejoin="round"/>
<path opacity="0.3" d="M48.9468 38.5135C51.078 35.7612 54.8708 34.4103 58.2619 35.1971" stroke="black" stroke-miterlimit="10" stroke-linecap="round" stroke-linejoin="round"/>
<path opacity="0.5" d="M43.9346 16.2122C44.024 16.3618 45.2335 17.6493 45.2335 17.6493L46.3113 17.8493C46.3113 17.8493 46.2154 17.238 45.9342 16.8576C45.6529 16.4772 44.0581 15.6351 44.0581 15.6351L43.9346 16.2122Z" fill="white"/>
<path opacity="0.3" d="M46.4624 22.1364C47.68 25.0057 51.1639 29.291 51.4565 29.5543" stroke="black" stroke-miterlimit="10" stroke-linecap="round" stroke-linejoin="round"/>
<path d="M36.9006 2.96338C37.1038 3.0154 37.2712 3.18772 37.3184 3.39419C37.3655 3.59902 37.2891 3.82824 37.1282 3.96317C37.2859 3.97293 37.3753 4.17451 37.3249 4.3257C37.2745 4.47689 37.1363 4.57768 36.9965 4.65409C37.0729 4.69635 37.107 4.7939 37.0989 4.88006C37.0908 4.96784 37.0469 5.0475 36.9998 5.12066C36.79 5.43929 36.4682 5.68151 36.104 5.79531C36.104 5.79531 36.1284 3.27551 36.2064 3.243C36.2845 3.21048 36.9006 2.96338 36.9006 2.96338Z" fill="#263238"/>
<path d="M33.4852 9.15072C33.5632 8.91337 33.6949 8.67764 33.838 8.45005L33.4234 8.09565L32.0611 6.16272C32.0774 7.20966 31.8563 9.03692 30.8906 9.49049L33.2332 10.6886C32.8902 10.3049 33.3421 9.56852 33.4852 9.15072Z" fill="#FAAC6D"/>
<path opacity="0.2" d="M33.4557 9.24332C33.0493 8.89868 32.6331 8.35082 32.781 7.83061C32.8444 7.61114 32.929 7.40793 33.0054 7.28113L33.7174 8.64995C33.6101 8.83203 33.5614 8.95558 33.4557 9.24332Z" fill="black"/>
<path d="M32.0609 4.24121C31.9308 5.95305 31.8398 6.67323 32.5616 7.70391C33.6459 9.25481 35.7349 9.14751 36.364 7.53321C36.9298 6.08148 37.0468 3.52429 35.5106 2.5375C33.9971 1.56534 32.1909 2.52937 32.0609 4.24121Z" fill="#FAAC6D"/>
<path d="M33.9905 5.14346C33.9694 5.32391 34.0409 5.48648 34.1515 5.50762C34.262 5.52875 34.3693 5.40032 34.3904 5.21987C34.4116 5.03942 34.34 4.87685 34.2295 4.85572C34.1189 4.83621 34.0116 4.96464 33.9905 5.14346Z" fill="#263238"/>
<path d="M35.7497 5.44257C35.7286 5.61652 35.8018 5.77584 35.9123 5.79535C36.0228 5.81648 36.1285 5.6913 36.1496 5.51736C36.1708 5.34341 36.0976 5.18409 35.9871 5.16458C35.8765 5.14345 35.7692 5.267 35.7497 5.44257Z" fill="#263238"/>
<path d="M33.9047 4.47849C33.9258 4.48499 33.9486 4.48174 33.9681 4.46873C34.2688 4.27203 34.5468 4.40533 34.5501 4.40696C34.5907 4.42647 34.6395 4.41021 34.6574 4.36794C34.6753 4.32567 34.6541 4.27365 34.6135 4.25414C34.5988 4.24764 34.2493 4.07857 33.877 4.32242C33.8397 4.34681 33.8299 4.39883 33.8559 4.43947C33.8673 4.45898 33.8852 4.47198 33.9047 4.47849Z" fill="#263238"/>
<path d="M36.5185 4.68329C36.5364 4.68004 36.5526 4.67028 36.564 4.6524C36.5852 4.61663 36.5754 4.56461 36.5396 4.53698C36.1901 4.25573 35.878 4.37116 35.8634 4.37766C35.826 4.39229 35.8097 4.43944 35.8276 4.4817C35.8455 4.52397 35.8894 4.54836 35.9268 4.53372C35.9398 4.52885 36.1836 4.44269 36.4616 4.66703C36.4779 4.68004 36.499 4.68491 36.5185 4.68329Z" fill="#263238"/>
<path d="M35.3771 5.27673C35.3771 5.27673 35.5348 5.95302 35.7656 6.39683C35.8063 6.47486 35.7575 6.56915 35.6713 6.5854C35.4502 6.62767 35.2178 6.51712 35.2178 6.51712L35.3771 5.27673Z" fill="#E97F3F"/>
<path d="M34.1646 4.85243L34.5677 4.82642C34.5677 4.82642 34.3076 5.08002 34.1646 4.85243Z" fill="#263238"/>
<path d="M35.9268 5.16127L36.3299 5.13526C36.3299 5.13364 36.2747 5.4035 35.9268 5.16127Z" fill="#263238"/>
<path d="M32.3114 5.85865C32.3114 5.85865 32.9226 5.87165 32.7422 5.13197C32.7422 5.13197 33.4689 4.87999 33.212 4.00375C33.212 4.00375 33.9208 4.15331 34.2183 3.44126C34.2183 3.44126 34.7889 4.01025 35.4229 3.53718C35.4229 3.53718 36.3593 4.33538 36.7381 3.63147C36.7381 3.63147 38.1069 3.31121 37.0551 2.47886C37.0551 2.47886 37.3006 0.648345 35.4928 1.33601C35.4928 1.33601 34.6719 0.0322136 33.4347 1.16694C33.4347 1.16694 32.4024 0.661349 32.0123 1.9115C32.0123 1.9115 30.8857 1.79282 30.7556 3.38111C30.7556 3.38111 29.8273 3.8802 30.6564 4.79545C30.6564 4.79545 30.4874 5.23276 30.9799 5.73184C30.9799 5.73184 31.0872 6.36911 31.5132 6.50404C31.5132 6.50404 31.8123 7.39004 32.0448 7.31038C32.2805 7.23072 32.0383 6.25857 32.3114 5.85865Z" fill="#263238"/>
<path d="M31.4123 5.54984C31.5538 5.92862 31.8399 6.20174 32.1244 6.32529C32.5519 6.51224 32.9031 5.83433 32.8267 5.36126C32.7568 4.93533 32.3634 4.59557 31.9147 4.6102C31.4725 4.6232 31.2514 5.11578 31.4123 5.54984Z" fill="#FAAC6D"/>
<path opacity="0.2" d="M32.4904 5.64893C32.5066 5.48799 32.4563 5.32055 32.3538 5.19374C32.2514 5.06857 32.097 4.98566 31.936 4.96777" stroke="black" stroke-width="0.5" stroke-miterlimit="10" stroke-linecap="round" stroke-linejoin="round"/>
<path d="M35.0521 6.78866C34.9058 6.94635 34.7725 7.11379 34.6489 7.28937L34.5449 7.2406C34.0848 7.01463 33.945 6.75777 33.9271 6.5318C33.9239 6.42613 33.9434 6.32046 33.9873 6.22292C34.01 6.16765 34.0409 6.11563 34.0799 6.06848C34.2441 6.37736 34.6782 6.59683 34.9041 6.71875C35.0033 6.77728 35.0521 6.78866 35.0521 6.78866Z" fill="#263238"/>
<path d="M34.8946 6.70572L34.7727 6.8504C34.3467 6.63581 34.0623 6.42773 33.9907 6.22939C34.0135 6.17412 34.0444 6.1221 34.0834 6.07495C34.2573 6.34319 34.6735 6.59354 34.8946 6.70572Z" fill="white"/>
<path d="M34.5465 7.24053C34.0864 7.01457 33.9466 6.75771 33.9287 6.53174C34.1059 6.6179 34.2636 6.73657 34.3969 6.88126C34.4831 6.98205 34.5351 7.10723 34.5465 7.24053Z" fill="#E8675B"/>
<path d="M30.2793 4.34983C30.289 4.78877 30.3573 5.2277 30.4938 5.64387C30.7019 6.27626 31.0986 7.13787 31.7294 7.23867C33.342 7.49552 33.1778 6.20636 33.2347 5.93324C33.2916 5.66013 33.2331 3.43783 33.7192 3.32728C34.2053 3.21674 37.7102 3.77434 37.7102 3.77434C37.7102 3.77434 38.0191 0.984677 35.0522 0.66767C31.7294 0.313272 30.2159 1.35858 30.2793 4.34983Z" fill="#FD8D14"/>
<path opacity="0.2" d="M33.0947 5.93494C33.1695 5.94144 36.759 6.76729 37.0776 6.59334C37.3963 6.41939 37.8563 4.47508 37.5507 3.36149C37.2435 2.2479 33.7678 2.49175 33.6393 2.54702C33.5109 2.60067 33.0947 5.93494 33.0947 5.93494Z" fill="#FD8D14"/>
<path d="M30.2969 3.63794L33.3352 4.37925L33.293 4.88809L30.2773 4.1923C30.2773 4.01347 30.2822 3.82977 30.2969 3.63794Z" fill="white"/>
<path d="M30.2822 4.44751L33.2767 5.18719L33.2556 5.70091L30.344 5.02788C30.318 4.85556 30.2855 4.63609 30.2822 4.44751Z" fill="white"/>
<path opacity="0.2" d="M30.8921 2.59104C30.8921 2.59104 31.0286 1.23035 32.4934 0.968617C33.9581 0.706883 34.8978 0.706883 34.6637 1.12631C34.4296 1.54573 32.8348 1.54573 32.4723 1.80747C32.1081 2.06757 31.2823 3.1324 30.8921 2.59104Z" fill="white"/>
<path opacity="0.3" d="M36.6094 2.73728C36.5834 2.947 36.2095 3.0738 35.7722 3.02015C35.3365 2.96651 35.0032 2.75354 35.0293 2.54383C35.0553 2.33411 35.4292 2.20731 35.8665 2.26096C36.3022 2.31298 36.6354 2.52757 36.6094 2.73728Z" fill="white"/>
<path d="M39.3617 40.856L41.0361 40.3066L40.5988 35.8457L38.5439 36.5968L39.3617 40.856Z" fill="#FAAC6D"/>
<path opacity="0.2" d="M39.1048 39.5181L38.5439 36.5968L40.5988 35.8457L40.9191 39.1101L39.1048 39.5181Z" fill="black"/>
<path d="M41.2865 39.832L39.217 40.4075C39.1471 40.427 39.1 40.4937 39.1048 40.5685L39.1829 42.2364C39.191 42.4087 39.3552 42.5307 39.5145 42.4819C40.1778 42.2852 40.6525 42.1096 41.4913 41.8755C42.0067 41.7325 43.5787 41.3553 44.2908 41.1586C44.9882 40.9651 44.9036 40.1994 44.5948 40.2141C43.2081 40.2791 42.114 40.1409 41.5921 39.8646C41.4978 39.8142 41.3889 39.8028 41.2865 39.832Z" fill="#263238"/>
<path opacity="0.3" d="M41.2865 39.832L39.217 40.4075C39.1471 40.427 39.1 40.4937 39.1048 40.5685L39.1829 42.2364C39.191 42.4087 39.3552 42.5307 39.5145 42.4819C40.1778 42.2852 40.6525 42.1096 41.4913 41.8755C42.0067 41.7325 43.5787 41.3553 44.2908 41.1586C44.9882 40.9651 44.9036 40.1994 44.5948 40.2141C43.2081 40.2791 42.114 40.1409 41.5921 39.8646C41.4978 39.8142 41.3889 39.8028 41.2865 39.832Z" fill="black"/>
<path d="M24.2687 20.4181C24.2687 20.4181 21.7993 25.0139 26.2666 26.742C29.6318 28.0442 36.2321 29.6454 36.2321 29.6454L38.2121 40.1652L42.0357 39.328C42.0357 39.328 40.9189 32.2872 40.228 27.667C40.0069 26.186 39.4021 26.0446 39.0932 25.8332C38.0983 25.1586 30.6674 22.4193 30.6674 22.4193L30.838 21.7934L24.2687 20.4181Z" fill="#FD8D14"/>
<path opacity="0.3" d="M24.2687 20.4181C24.2687 20.4181 21.7993 25.0139 26.2666 26.742C29.6318 28.0442 36.2321 29.6454 36.2321 29.6454L38.2121 40.1652L42.0357 39.328C42.0357 39.328 40.9189 32.2872 40.228 27.667C40.0069 26.186 39.4021 26.0446 39.0932 25.8332C38.0983 25.1586 30.6674 22.4193 30.6674 22.4193L30.838 21.7934L24.2687 20.4181Z" fill="black"/>
<path opacity="0.3" d="M36.2324 29.6455L37.2013 28.8815L36.3365 30.2048L36.2324 29.6455Z" fill="black"/>
<path d="M31.6416 8.32471C31.5245 8.34422 29.6143 8.56693 28.3414 10.5047C27.0685 12.4426 24.1813 18.812 24.2057 19.0948C24.3065 20.2539 22.8076 20.9091 26.3337 21.613C29.8614 22.3169 30.8385 22.1056 30.8385 22.1056C30.8385 22.1056 31.5635 21.7496 31.7651 20.6409C31.7895 20.5075 33.633 16.3491 34.0427 14.4405C34.4524 12.532 33.4558 9.24159 33.4558 9.24159L33.2347 9.72279L31.6416 8.32471Z" fill="#263238"/>
<path opacity="0.3" d="M32.8104 17.9779C32.8104 17.9779 29.3347 12.3937 29.1397 12.631C29.0405 12.7529 29.5298 14.6387 30.3134 16.4123C30.3427 16.4806 30.871 16.2612 30.8921 16.3327C31.4514 18.1096 32.1179 19.6588 32.1179 19.6588C32.2382 19.3678 32.8104 17.9779 32.8104 17.9779Z" fill="black"/>
<path d="M31.3926 8.42705L31.8624 7.98486L33.7189 9.13422L33.4117 10.1145L31.3926 8.42705Z" fill="#263238"/>
<path d="M31.75 10.0772C31.5468 9.80567 29.8252 9.86419 29.3765 11.0786C28.9295 12.293 33.3237 19.3273 34.421 19.7321C35.9166 20.2848 41.6748 19.4216 41.7171 19.363L42.2698 17.6853L35.8955 17.1667C35.6712 17.2058 32.5759 11.1794 31.75 10.0772Z" fill="#FAAC6D"/>
<path d="M30.4824 16.0986L34.2378 14.2714C34.2378 14.2714 32.5584 9.25777 31.097 9.43334C29.6355 9.60891 28.8178 10.8656 28.9641 11.7418C29.1104 12.6197 30.4824 16.0986 30.4824 16.0986Z" fill="#263238"/>
<path opacity="0.3" d="M29.5298 10.0692C29.5298 10.0692 31.2107 8.86292 32.1683 10.1488C33.1258 11.4347 34.1418 14.2277 34.1418 14.2277" stroke="black" stroke-width="0.75" stroke-miterlimit="10" stroke-linecap="round" stroke-linejoin="round"/>
<path opacity="0.3" d="M30.2773 15.3948L33.9904 13.8276" stroke="black" stroke-width="0.75" stroke-miterlimit="10" stroke-linecap="round" stroke-linejoin="round"/>
</svg>
