<svg width="292" height="282" viewBox="0 0 292 282" fill="none" xmlns="http://www.w3.org/2000/svg">
<g clip-path="url(#clip0_32_60)">
<rect width="292" height="282" fill="url(#paint0_linear_32_60)"/>
<circle cx="146" cy="826.801" r="674.382" fill="white"/>
<path d="M202.763 129.867C199.95 130.6 198.749 131.537 190.546 139.711L182.489 147.709L183.163 148.822C185.097 152.016 185.683 154.506 185.507 158.314C185.331 161.479 184.628 163.764 183.075 166.107C181.054 169.154 178.065 171.557 174.872 172.67C172.06 173.666 168.72 173.842 155.39 173.754L142.733 173.666L142.177 172.963C141.503 172.143 141.474 170.941 142.089 170.062L142.528 169.418H155.771C163.065 169.418 169.921 169.271 171.063 169.125C175.136 168.51 178.329 166.254 180.087 162.709C180.966 160.893 181.024 160.629 181.024 157.406C181.024 154.33 180.966 153.891 180.233 152.426C179.149 150.258 177.978 148.881 176.132 147.65C172.909 145.541 174.784 145.658 143.349 145.746L115.106 145.834L113.056 146.537C108.866 147.943 105.849 149.818 101.776 153.568L99.8721 155.326L116.278 171.674L132.685 188.021L155.829 187.875L178.974 187.729L181.317 186.908C186.415 185.121 190.575 181.723 194.442 176.215C207.157 158.021 214.511 147.27 215.243 145.687C216.034 144.076 216.181 143.373 216.269 141C216.356 138.656 216.269 137.953 215.712 136.459C214.804 134.027 212.167 131.391 209.735 130.482C207.772 129.75 204.462 129.457 202.763 129.867Z" fill="#FD8D14"/>
<path d="M83.2607 162.621L75.7021 170.15V171.469V172.787L94.9795 192.035L114.228 211.312H115.546H116.864L124.394 203.754L131.952 196.225V194.906V193.588L112.675 174.34L93.4268 155.062H92.1084H90.79L83.2607 162.621Z" fill="#FD8D14"/>
<path d="M142.572 81.9243H166.135C166.3 81.9243 166.435 82.0586 166.435 82.2243V107.297C166.435 107.463 166.569 107.597 166.735 107.597H176.826C177.087 107.597 177.224 107.908 177.047 108.1L154.578 132.523C154.458 132.653 154.251 132.652 154.133 132.519L132.397 108.096C132.225 107.903 132.362 107.597 132.621 107.597H141.972C142.137 107.597 142.272 107.463 142.272 107.297V82.2243C142.272 82.0586 142.406 81.9243 142.572 81.9243Z" fill="#FD8D14"/>
</g>
<defs>
<linearGradient id="paint0_linear_32_60" x1="146" y1="0" x2="146" y2="282" gradientUnits="userSpaceOnUse">
<stop offset="0.329662" stop-color="white"/>
<stop offset="1" stop-color="#DFDFDF"/>
</linearGradient>
<clipPath id="clip0_32_60">
<rect width="292" height="282" fill="white"/>
</clipPath>
</defs>
</svg>
